<?xml version="1.0" encoding="UTF-8"?>
<svg width="200px" height="140px" viewBox="0 0 200 140" version="1.1" xmlns="http://www.w3.org/2000/svg" xmlns:xlink="http://www.w3.org/1999/xlink">
    <title>Group 13</title>
    <g id="Group-13" stroke="none" stroke-width="1" fill="none" fill-rule="evenodd">
        <g transform="translate(7.000000, 12.000000)" stroke="#353D4C" stroke-width="3">
            <g id="Group-21" transform="translate(38.500000, 58.000000) rotate(14.000000) translate(-38.500000, -58.000000) translate(13.000000, 5.000000)">
                <rect id="Rectangle" fill="#F2F5FA" stroke-linejoin="round" x="21.3844231" y="5.40117692" width="10" height="30"></rect>
                <path d="M13.5795129,-0.683723927 L51.5795129,1.68452791 L51.5795129,8.41266994 L13.5795129,8.41266994 L13.5795129,-0.683723927 Z" id="Path-12" fill="#353D4C" stroke-linejoin="round"></path>
                <path d="M25.6443126,21.1673661 C29.4770445,21.1673661 33.3110959,22.0127212 37.1443126,23.7148746 L37.1443126,23.7148746 L37.1443126,56.6198577 C33.3110959,58.3220111 29.4770445,59.1673661 25.6443126,59.1673661 C21.8115807,59.1673661 17.9775294,58.3220111 14.1443126,56.6198577 L14.1443126,56.6198577 L14.1443126,23.7148746 C17.9775294,22.0127212 21.8115807,21.1673661 25.6443126,21.1673661 Z" id="Rectangle" fill="#353D4C" stroke-linejoin="round"></path>
                <path d="M25.2631728,28.0736562 C32.8937748,28.0736562 40.5250593,29.4692053 48.1560006,32.2662642 C49.23933,32.6633479 50.141123,33.37745 50.7720837,34.2807337 C51.4030444,35.1840173 51.7631728,36.2764827 51.7631728,37.430293 L51.7631728,37.430293 L51.7631728,97.7170229 C51.7631712,98.8708314 51.4030427,99.9632951 50.7720828,100.866578 C50.1411228,101.76986 49.2393315,102.483962 48.1560043,102.881047 C40.5250604,105.678107 32.8937754,107.073656 25.2631728,107.073656 C17.6325708,107.073656 10.0012863,105.678107 2.370345,102.881048 C1.28701555,102.483964 0.385222548,101.769862 -0.245738146,100.866579 C-0.876698841,99.963295 -1.23682721,98.8708297 -1.23682721,97.7170193 L-1.23682721,97.7170193 L-1.23682721,37.4302895 C-1.23682566,36.2764809 -0.876697128,35.1840172 -0.245737172,34.2807346 C0.385222784,33.3774519 1.28701413,32.6633502 2.37034133,32.2662655 C10.0012852,29.4692055 17.6325702,28.0736562 25.2631728,28.0736562 Z" id="Rectangle" fill="#FFFFFF" stroke-linejoin="round"></path>
                <path d="M25,44.5 C33.8327638,44.5 42.6667099,46.3571332 51.5,50.0811886 L51.5,50.0811886 L51.5,85.9188114 C42.6667099,89.6428668 33.8327638,91.5 25,91.5 C16.1672362,91.5 7.33329009,89.6428668 -1.5,85.9188114 L-1.5,85.9188114 L-1.5,50.0811886 C7.33329009,46.3571332 16.1672362,44.5 25,44.5 Z" id="Rectangle" fill="#3DCCBD" stroke-linejoin="round"></path>
                <path d="M29.5,56.5 L29.5,63.5 L36.5,63.5 L36.5,72.5 L29.5,72.5 L29.5,79.5 L20.5,79.5 L20.5,72.4992143 L13.5,72.5002143 L13.5,63.5002143 L20.5,63.4992143 L20.5,56.5 L29.5,56.5 Z" id="Combined-Shape" fill="#FFFFFF"></path>
            </g>
            <path d="M184,90.1966868 L179.94182,90.1949972 C144.60076,92.7303456 136.560365,94.0020294 131.376083,94 C126.392743,93.997796 109.601327,85.8551292 81.0018347,69.5718704 C79.1046284,68.4916989 78.4387352,66.0747449 79.5145154,64.1734616 C79.5304101,64.1453702 79.5466472,64.1174751 79.5632232,64.0897827 C80.7497772,62.1074898 83.2259715,61.3260334 85.333026,62.2689041 L109.8062,73.2202287 C122.836719,74.5872476 129.202888,74.5898982 139.089939,73.2324214 C139.089845,73.0053063 134.777999,71.5960015 113.748953,65.0090132 C111.156195,64.1968537 109.709246,61.4316644 110.517109,58.8327697 C110.539132,58.7619224 110.562748,58.691584 110.587939,58.6218085 C111.572393,55.895069 114.501897,54.4069874 117.278767,55.223111 L134.659123,60.156442 C150.179069,57.7100923 156.047914,60.0281905 166.524982,67.1166735 C166.524982,67.1166735 175.052263,67.120224 183.990463,67.1239455" id="Path" fill="#FFFFFF" stroke-linejoin="round" transform="translate(131.500000, 74.500000) rotate(-11.000000) translate(-131.500000, -74.500000) "></path>
            <path d="M85.5,31.5234315 L91.3839173,43.8260123 C92.1111925,45.3466593 92.3161367,47.0142694 92.0391977,48.5975934 C91.7622587,50.1809173 91.0034365,51.6799552 89.8031789,52.8634577 C88.6100276,54.0399531 87.0550138,54.6282008 85.5,54.6282008 C83.9449862,54.6282008 82.3899724,54.0399531 81.1968211,52.8634577 C79.9965635,51.6799552 79.2377413,50.1809173 78.9608023,48.5975934 C78.6838633,47.0142694 78.8888075,45.3466593 79.6160827,43.8260123 L79.6160827,43.8260123 L85.5,31.5234315 Z" id="Path-6" fill="#F2F5FA" stroke-linejoin="round"></path>
        </g>
    </g>
</svg>