<?xml version="1.0" encoding="UTF-8"?>
<svg width="660px" height="438px" viewBox="0 0 660 438" version="1.1" xmlns="http://www.w3.org/2000/svg" xmlns:xlink="http://www.w3.org/1999/xlink">
    <title>Group 8 Copy</title>
    <g id="Group-8-Copy" stroke="none" stroke-width="1" fill="none" fill-rule="evenodd">
        <g>
            <g id="Group-30" transform="translate(0.000000, 312.000000)">
                <path d="M3.87155983,89.8045104 C1.54862393,85.9765258 -0.774311967,65.6882074 9.67889958,42.7202998 C20.1321111,19.7523923 26.7137628,9.0340354 31.7467906,6.73724464 C36.7798184,4.44045388 37.9412864,3.67485696 45.684406,3.67485696 C50.8464858,3.67485696 85.0452643,3.67485696 148.280742,3.67485696 C163.766981,4.44045388 180.54374,8.52363745 198.611019,15.9244077 C216.678299,23.3251779 229.196342,31.236346 236.16515,39.6579122 C254.490533,43.4858968 266.105213,46.4206849 271.009188,48.4622767 C278.365152,51.5246644 293.851391,57.6494398 296.561483,66.8366028 C299.271575,76.0237658 299.271575,77.1721612 299.271575,82.1485412 C299.271575,87.1249211 296.174327,98.6088749 294.238547,100.522867 C292.948027,101.798862 290.108883,102.692059 285.721116,103.202456 L29.8110107,103.202456 C14.0666674,96.8224821 5.42018377,92.3565001 3.87155983,89.8045104 Z" id="Path-2" fill="#FFFFFF"></path>
                <polygon id="Fill-3" fill="#CFDEE6" points="70.3165018 37.2405874 26.137045 37.2405874 38.9685722 15.887322 70.3165018 15.887322"></polygon>
                <polygon id="Fill-5" fill="#CFDEE6" points="299.331667 81.1627453 272.333946 75.0755143 272.333946 64.2455019 295.773393 64.2455019"></polygon>
                <polygon id="Fill-7" fill="#CFDEE6" points="70.316669 37.2410008 133.621323 37.2410008 133.621323 15.8877354 70.316669 15.8877354"></polygon>
                <polygon id="Fill-9" fill="#CFDEE6" points="18.555121 75.0615406 2.63529665 78.6078777 5.25361729 63.4600821 20.0444947 63.4600821"></polygon>
                <polygon id="Fill-10" fill="#CFDEE6" points="212.897482 37.2405874 134.465776 37.2405874 134.465776 15.887322 166.188348 17.7650864"></polygon>
                <path d="M30.2828726,100.465436 L290.382212,100.465436 C291.867404,100.465436 293.151059,99.4178234 293.432877,97.9724988 L296.737765,80.9229603 C296.675882,68.8154728 291.938486,62.6662285 291.114773,61.6880711 C271.326424,47.3671203 236.432765,42.8327037 236.079864,42.7864004 C235.456853,42.7078502 234.884017,42.4101861 234.468397,41.9438456 C205.924437,10.1094963 147.30115,5.47999266 146.710752,5.43616989 L47.7205034,5.44526518 C39.867214,5.44526518 32.9053746,6.12162418 27.2296984,14.4611802 C-1.85364724,57.1867284 6.31407478,87.2946258 6.40020925,87.5931168 C6.4420221,87.7369878 6.47296361,87.8916077 6.48801623,88.0412666 C7.39033753,90.0504993 18.2516433,95.7854944 30.2828726,100.465436 L30.2828726,100.465436 Z M290.382212,105.593527 L29.7919898,105.593527 C29.4708671,105.593527 29.1497444,105.533167 28.8495282,105.417409 C16.8224801,100.776329 2.4171172,94.1756277 1.37346848,88.8557087 C0.616655905,86.0981815 -6.83606639,55.3255009 22.9271562,11.5961632 C30.0144341,1.18866847 39.0610623,0.316347268 47.7205034,0.316347268 L146.902255,0.316347268 C149.564061,0.504867869 207.581898,5.09881723 237.70053,37.8327736 C243.730779,38.6811163 275.221709,43.6810464 294.417152,57.726658 C294.5359,57.8134767 294.646286,57.9093907 294.744965,58.0119194 C295.040163,58.3145446 301.924231,65.5849904 301.924231,81.1627453 C301.924231,81.32398 301.910014,81.4876952 301.879073,81.6456226 L298.525682,98.9390803 L298.523174,98.9390803 C297.774724,102.79383 294.351088,105.593527 290.382212,105.593527 L290.382212,105.593527 Z" id="Fill-11" fill="#353D4C"></path>
                <polygon id="Fill-12" fill="#353D4C" points="67.7217636 37.240174 72.9090657 37.240174 72.9090657 13.0293332 67.7217636 13.0293332"></polygon>
                <polygon id="Fill-13" fill="#353D4C" points="131.02809 37.1161472 136.215392 37.1161472 136.215392 13.0285063 131.02809 13.0285063"></polygon>
                <path d="M299.333256,83.7272042 C299.171022,83.7272042 299.007116,83.7114942 298.842373,83.6784204 L271.846325,78.5437145 C270.623717,78.3130249 269.74063,77.2571441 269.74063,76.0267992 L269.74063,64.2459153 C269.74063,62.8320108 270.903863,61.6818698 272.334699,61.6818698 L295.762438,61.6818698 C297.193274,61.6818698 298.355671,62.8320108 298.355671,64.2459153 C298.355671,65.6606467 297.193274,66.8107877 295.762438,66.8107877 L274.927932,66.8107877 L274.927932,73.9092498 L299.819957,78.6454164 C301.227378,78.9116605 302.147261,80.2569368 301.876313,81.6452092 C301.638816,82.8739004 300.553355,83.7272042 299.333256,83.7272042" id="Fill-14" fill="#353D4C"></path>
                <path d="M236.408179,42.8080637 L236.39229,42.8080637 L12.4016912,41.4999954 C10.9700192,41.4909001 9.81682081,40.335798 9.8234819,38.9210666 C9.83270969,37.5104695 10.9917619,36.3719043 12.4167438,36.3719043 L12.4326327,36.3719043 L236.424068,37.6799727 C237.854067,37.689068 239.008102,38.8441701 239.00227,40.2589014 C238.993049,41.6694985 237.832324,42.8080637 236.408179,42.8080637" id="Fill-15" fill="#353D4C"></path>
                <path d="M156.770255,57.7349264 L142.64002,57.7349264 C141.209185,57.7349264 140.046787,56.5856122 140.046787,55.1708809 C140.046787,53.7561496 141.209185,52.6068354 142.64002,52.6068354 L156.770255,52.6068354 C158.20109,52.6068354 159.364324,53.7561496 159.364324,55.1708809 C159.364324,56.5856122 158.20109,57.7349264 156.770255,57.7349264" id="Fill-16" fill="#353D4C"></path>
                <path d="M125.311019,57.7349264 L111.180785,57.7349264 C109.749949,57.7349264 108.587552,56.5856122 108.587552,55.1708809 C108.587552,53.7561496 109.749949,52.6068354 111.180785,52.6068354 L125.311019,52.6068354 C126.741855,52.6068354 127.905089,53.7561496 127.905089,55.1708809 C127.905089,56.5856122 126.741855,57.7349264 125.311019,57.7349264" id="Fill-17" fill="#353D4C"></path>
                <path d="M90.2184146,98.7945478 C90.2184146,112.034813 79.3629627,122.768084 65.9719795,122.768084 C52.58016,122.768084 41.7255443,112.034813 41.7255443,98.7945478 C41.7255443,85.5534562 52.58016,74.8210115 65.9719795,74.8210115 C79.3629627,74.8210115 90.2184146,85.5534562 90.2184146,98.7945478" id="Fill-18" fill="#FFFFFF"></path>
                <path d="M65.9718958,77.3853877 C54.0326548,77.3853877 44.3186936,86.9900162 44.3186936,98.7957054 C44.3186936,110.600568 54.0326548,120.202716 65.9718958,120.202716 C77.9111369,120.202716 87.6259344,110.600568 87.6259344,98.7957054 C87.6259344,86.9900162 77.9111369,77.3853877 65.9718958,77.3853877 M65.9718958,125.330807 C51.1726559,125.330807 39.1313915,113.425896 39.1313915,98.7957054 C39.1313915,84.1622072 51.1726559,72.2572967 65.9718958,72.2572967 C80.7711358,72.2572967 92.8124002,84.1622072 92.8124002,98.7957054 C92.8124002,113.425896 80.7711358,125.330807 65.9718958,125.330807" id="Fill-19" fill="#353D4C"></path>
                <path d="M65.9718958,89.9859228 C61.0580498,89.9859228 57.0624139,93.9365869 57.0624139,98.7951266 C57.0624139,103.652013 61.0580498,107.603504 65.9718958,107.603504 C70.8857419,107.603504 74.8822141,103.652013 74.8822141,98.7951266 C74.8822141,93.9365869 70.8857419,89.9859228 65.9718958,89.9859228 M65.9718958,112.731595 C58.1997234,112.731595 51.8751118,106.479822 51.8751118,98.7951266 C51.8751118,91.1104316 58.1997234,84.8570049 65.9718958,84.8570049 C73.7440683,84.8570049 80.0686799,91.1104316 80.0686799,98.7951266 C80.0686799,106.479822 73.7440683,112.731595 65.9718958,112.731595" id="Fill-20" fill="#353D4C"></path>
                <path d="M261.389767,98.7945478 C261.389767,112.034813 250.535152,122.768084 237.144168,122.768084 C223.752349,122.768084 212.897733,112.034813 212.897733,98.7945478 C212.897733,85.5534562 223.752349,74.8210115 237.144168,74.8210115 C250.535152,74.8210115 261.389767,85.5534562 261.389767,98.7945478" id="Fill-21" fill="#FFFFFF"></path>
                <path d="M237.143165,77.3853877 C225.203924,77.3853877 215.489963,86.9900162 215.489963,98.7957054 C215.489963,110.600568 225.203924,120.202716 237.143165,120.202716 C249.082406,120.202716 258.797203,110.600568 258.797203,98.7957054 C258.797203,86.9900162 249.082406,77.3853877 237.143165,77.3853877 M237.143165,125.330807 C222.343925,125.330807 210.302661,113.425896 210.302661,98.7957054 C210.302661,84.1622072 222.343925,72.2572967 237.143165,72.2572967 C251.942405,72.2572967 263.983669,84.1622072 263.983669,98.7957054 C263.983669,113.425896 251.942405,125.330807 237.143165,125.330807" id="Fill-22" fill="#353D4C"></path>
                <path d="M237.143165,89.9859228 C232.229319,89.9859228 228.233683,93.9365869 228.233683,98.7951266 C228.233683,103.652013 232.229319,107.603504 237.143165,107.603504 C242.057847,107.603504 246.053483,103.652013 246.053483,98.7951266 C246.053483,93.9365869 242.057847,89.9859228 237.143165,89.9859228 M237.143165,112.731595 C229.371829,112.731595 223.046381,106.479822 223.046381,98.7951266 C223.046381,91.1104316 229.371829,84.8570049 237.143165,84.8570049 C244.915337,84.8570049 251.239949,91.1104316 251.239949,98.7951266 C251.239949,106.479822 244.915337,112.731595 237.143165,112.731595" id="Fill-23" fill="#353D4C"></path>
                <path d="M212.896646,42.1556832 C212.256073,42.1556832 211.612992,41.9200325 211.11291,41.4495578 C187.027036,18.8626401 142.150977,16.9518019 141.699398,16.9360919 L51.2138834,16.9385724 C49.6910594,16.9385724 45.2965289,17.0849239 43.279477,17.7521876 C41.7917758,18.2449871 39.7613439,20.1078683 38.759508,21.2373382 C34.7814335,25.7395078 32.749329,29.6909988 30.5959673,33.8723527 C29.8910026,35.2440881 29.1843655,36.6174772 28.4099915,38.0107106 C27.718407,39.2468435 26.1378812,39.6999544 24.8868408,39.0211148 C23.6341278,38.3373142 23.1766952,36.7787119 23.8649347,35.537618 C24.614221,34.1948221 25.2940979,32.8710437 25.9748111,31.5472653 C28.1758395,27.2699974 30.4504585,22.8463781 34.8566966,17.8613311 C35.6603396,16.9559362 38.515321,13.9255502 41.6303782,12.8911674 C44.7964472,11.8427283 50.5231351,11.8096545 51.2071933,11.8096545 L51.2138834,11.8096545 L141.797241,11.8096545 C143.811784,11.88159 189.160328,13.7973893 214.680382,37.7320639 C215.719013,38.7052602 215.763335,40.3291832 214.776552,41.3544707 C214.268944,41.885305 213.583213,42.1556832 212.896646,42.1556832" id="Fill-24" fill="#353D4C"></path>
                <path d="M2.63270426,81.1732462 C1.43267548,81.1732462 0.353903958,80.3439209 0.0988455763,79.1383813 C-0.196353141,77.7509358 0.699278095,76.3932567 2.10000855,76.1013806 C2.22126582,76.0757484 13.8703257,73.6481322 17.6828213,72.6385548 C18.2029732,71.8108832 18.2514761,68.9607494 17.8550903,66.0254506 L5.25269741,66.0254506 C3.8218617,66.0254506 2.65862822,64.8753095 2.65862822,63.4605782 C2.65862822,62.04502 3.8218617,60.8965327 5.25269741,60.8965327 L20.0452473,60.8965327 C21.2737088,60.8965327 22.3332464,61.7498364 22.5832873,62.9380123 C23.4053279,66.8299705 24.7215964,76.0476356 19.2416043,77.5343025 C15.4859742,78.5529752 3.66966293,81.0128383 3.1704175,81.1170207 C2.98978599,81.1558824 2.80915448,81.1732462 2.63270426,81.1732462" id="Fill-25" fill="#353D4C"></path>
            </g>
            <g id="Group-36" transform="translate(70.000000, 106.000000)">
                <g id="Group-2" transform="translate(-0.000015, 105.522163)">
                    <polygon id="Path-4" fill="#FFFFFF" points="4.32003292 26.1879825 14.8115414 16.3289774 25.30305 26.1879825 14.8115414 36.0469877"></polygon>
                    <polygon id="Path-4-Copy" fill="#FFFFFF" points="34.868837 56.6892796 45.3603455 46.8302744 55.8518541 56.6892796 45.3603455 66.5482847"></polygon>
                    <path d="M6.22484666,26.1508934 L14.713905,34.6202014 L23.1964043,26.1508934 L14.713905,17.6766737 L6.22484666,26.1508934 Z M14.7621217,40.882556 C13.9329715,40.882556 13.1051544,40.5671171 12.473294,39.9362393 L1.00116177,28.4859405 C0.395962135,27.8790201 0.0533711544,27.0604762 0.0533711544,26.2006722 C0.0533711544,25.3448612 0.393296057,24.5223244 1.00116177,23.915404 L12.473294,12.4611123 C13.0798267,11.8555228 13.9049777,11.5147956 14.7621217,11.5147956 C15.6205987,11.5147956 16.4417506,11.8595157 17.0496163,12.4611123 L28.5190824,23.915404 C29.7814702,25.1771595 29.7814702,27.2241849 28.5190824,28.4859405 L17.0496163,39.9362393 C16.4177559,40.5671171 15.5899388,40.882556 14.7621217,40.882556 L14.7621217,40.882556 Z" id="Fill-26" fill="#353D4C"></path>
                    <polygon id="Path" fill="#353D4C" points="38.1602012 56.448782 45.0600102 63.337861 51.9558201 56.448782 45.0600102 49.5623649"></polygon>
                    <path d="M45.0600102,71.1333277 C44.2028662,71.1333277 43.3790482,70.7939314 42.7711825,70.187011 L31.2990503,58.7327193 C30.6911846,58.1271299 30.3512597,57.303262 30.3512597,56.448782 C30.3512597,55.5889781 30.6951837,54.7691031 31.2990503,54.1635137 L42.7711825,42.7132149 C44.0349033,41.4501284 46.083784,41.4501284 47.3488378,42.7132149 L58.8169709,54.1635137 C60.0806918,55.4239383 60.0806918,57.4722947 58.8169709,58.7327193 L47.3488378,70.187011 C46.7409721,70.7899385 45.9184872,71.1333277 45.0600102,71.1333277 L45.0600102,71.1333277 Z" id="Path" fill="#353D4C"></path>
                    <polygon id="Fill-28" fill="#DCE5F4" points="98.1130896 14.9302355 86.6436234 26.3818653 75.1728242 14.9302355 86.6436234 3.47727479"></polygon>
                    <path d="M78.878716,14.8771736 L86.5945511,22.582498 L94.3074047,14.8771736 L86.5945511,7.17780272 L78.878716,14.8771736 Z M86.6445565,29.6134502 C85.7874126,29.6134502 84.9635946,29.2740539 84.3557289,28.6671335 L72.8835966,17.2128419 C72.2757309,16.6072524 71.935806,15.7833846 71.935806,14.9275736 C71.935806,14.0691006 72.2797301,13.2492257 72.8835966,12.6436363 L84.3557289,1.19200651 C85.6194497,-0.0697490648 87.6683304,-0.0697490648 88.9333842,1.19200651 L100.401517,12.6436363 C101.665238,13.9040609 101.665238,15.9524172 100.401517,17.2128419 L88.9333842,28.6671335 C88.3255185,29.270061 87.5043666,29.6134502 86.6445565,29.6134502 L86.6445565,29.6134502 Z" id="Fill-29" fill="#353D4C"></path>
                </g>
                <g id="Group" transform="translate(335.948735, 0.154043)">
                    <polygon id="Stroke-30" stroke="#353D4C" stroke-width="3.98596491" fill="#FFFFFF" stroke-linejoin="round" points="187.311042 88.731714 149.98818 88.731714 149.98818 28.0988347 187.311042 44.3144328"></polygon>
                    <polygon id="Stroke-28" stroke="#353D4C" stroke-width="3.98596491" fill="#FFFFFF" stroke-linejoin="round" points="14.6263973 88.731714 14.6263973 70.3178043 31.226432 54.9407145 49.1513588 69.5813366 69.2602473 52.3697325 97.9583476 70.5529415 97.9583476 88.731714"></polygon>
                    <polygon id="Fill-7" fill="#CFDEE6" points="98.585098 88.7310485 135.554704 88.7310485 135.554704 0 98.585098 0"></polygon>
                    <path d="M120.335379,23.0922543 L120.335379,16.9409747 C120.335379,15.2417752 118.957906,13.8642258 117.253838,13.8642258 C115.551992,13.8642258 114.172297,15.2417752 114.172297,16.9409747 L114.172297,23.0922543 C114.172297,24.7914538 115.551992,26.1690032 117.253838,26.1690032 C118.957906,26.1690032 120.335379,24.7914538 120.335379,23.0922543 Z" id="Fill-9" fill="#353D4C"></path>
                    <path d="M117.253838,44.6546376 C118.957906,44.6546376 120.335379,43.2770881 120.335379,41.5778887 L120.335379,35.4266091 C120.335379,33.7274096 118.957906,32.3498602 117.253838,32.3498602 C115.551992,32.3498602 114.172297,33.7274096 114.172297,35.4266091 L114.172297,41.5778887 C114.172297,43.2770881 115.551992,44.6546376 117.253838,44.6546376" id="Fill-10" fill="#353D4C"></path>
                    <path d="M117.253838,63.140272 C118.957906,63.140272 120.335379,61.7627225 120.335379,60.063523 L120.335379,53.9122435 C120.335379,52.213044 118.957906,50.8354945 117.253838,50.8354945 C115.551992,50.8354945 114.172297,52.213044 114.172297,53.9122435 L114.172297,60.063523 C114.172297,61.7627225 115.551992,63.140272 117.253838,63.140272" id="Fill-10-Copy" fill="#353D4C"></path>
                    <path d="M168.649833,62.4566775 C170.351679,62.4566775 171.731374,61.079128 171.731374,59.3799286 L171.731374,53.228649 C171.731374,51.5294495 170.351679,50.1519001 168.649833,50.1519001 C166.947987,50.1519001 165.568292,51.5294495 165.568292,53.228649 L165.568292,59.3799286 C165.568292,61.079128 166.947987,62.4566775 168.649833,62.4566775" id="Fill-11" fill="#353D4C"></path>
                    <path d="M165.568959,77.8353201 C165.568959,79.5367378 166.948654,80.912069 168.6505,80.912069 C170.350124,80.912069 171.729819,79.5367378 171.729819,77.8353201 L171.729819,71.6840405 C171.729819,69.984841 170.350124,68.6095099 168.6505,68.6095099 C166.948654,68.6095099 165.568959,69.984841 165.568959,71.6840405 L165.568959,77.8353201 Z" id="Fill-12" fill="#353D4C"></path>
                    <path d="M72.3255698,68.6090662 C70.6237237,68.6090662 69.2440287,69.9843974 69.2440287,71.6835968 L69.2440287,77.8348764 C69.2440287,79.5362942 70.6237237,80.9116253 72.3255698,80.9116253 C74.0274158,80.9116253 75.4071109,79.5362942 75.4071109,77.8348764 L75.4071109,71.6835968 C75.4071109,69.9843974 74.0274158,68.6090662 72.3255698,68.6090662" id="Fill-13" fill="#353D4C"></path>
                    <line x1="0.705255356" y1="89.0391466" x2="202.512512" y2="89.0391466" id="Stroke-27" stroke="#353D4C" stroke-width="3.98596491" stroke-linecap="round" stroke-linejoin="round"></line>
                    <polygon id="Stroke-29" stroke="#353D4C" stroke-width="3.98596491" stroke-linejoin="round" points="98.7436081 88.7310485 135.713214 88.7310485 135.713214 0 98.7436081 0"></polygon>
                </g>
                <g id="Group-4" transform="translate(553.889927, 141.723197)" stroke="#353D4C" stroke-linejoin="round" stroke-width="3.98596491">
                    <line x1="18.1287093" y1="45.4438512" x2="18.1287093" y2="24.6475125" id="Stroke-31" stroke-linecap="round"></line>
                    <polygon id="Stroke-32" fill="#FFFFFF" points="17.7429921 0 0 24.6475125 35.4859842 24.6475125"></polygon>
                </g>
                <g id="Group-5" transform="translate(481.375090, 273.433342)" stroke="#353D4C" stroke-linejoin="round" stroke-width="3.98596491">
                    <line x1="18.1287093" y1="45.5978939" x2="18.1287093" y2="24.8015553" id="Stroke-33" stroke-linecap="round"></line>
                    <polygon id="Stroke-34" fill="#FFFFFF" points="18.5144265 0 0 24.6475125 37.028853 24.6475125"></polygon>
                </g>
                <g id="Group-3" transform="translate(301.630865, 164.060005)" stroke="#353D4C" stroke-linejoin="round" stroke-width="3.63041685">
                    <line x1="18.1287093" y1="45.5978939" x2="18.1287093" y2="24.8015553" id="Stroke-33-Copy" stroke-linecap="round"></line>
                    <polygon id="Stroke-34-Copy" fill="#FFFFFF" points="18.5144265 0 0 24.6475125 37.028853 24.6475125"></polygon>
                </g>
            </g>
            <path d="M523.999554,44 C516.425547,44 510.285714,37.8441778 510.285714,30.2504471 C510.285714,22.6567164 516.425547,16.5 523.999554,16.5 C531.573561,16.5 537.714286,22.6567164 537.714286,30.2504471 C537.714286,37.8441778 531.573561,44 523.999554,44 M492,32.0852605 C492,49.8045387 524,77 524,77 C524,77 556,49.8045387 556,32.0852605 C556,14.3650572 541.673115,0 524,0 C506.326885,0 492,14.3650572 492,32.0852605 Z" id="Fill-1" stroke="#353D4C" stroke-width="3.4877193" fill="#FFFFFF"></path>
            <path d="M333,392 C458.23027,382.066168 520.896937,333.735287 521,247.007358 C521.001828,244.688161 520.950296,230.019041 520.845405,203" id="Path-3" stroke="#353D4C" stroke-width="5.97894761" stroke-linecap="round" stroke-dasharray="5.978947843585098,14.94736937138072"></path>
        </g>
    </g>
</svg>