<?xml version="1.0" encoding="utf-8"?>
<!-- Generator: Adobe Illustrator 24.2.3, SVG Export Plug-In . SVG Version: 6.00 Build 0)  -->
<svg version="1.1" id="Layer_1" xmlns="http://www.w3.org/2000/svg" xmlns:xlink="http://www.w3.org/1999/xlink" x="0px" y="0px"
	 viewBox="0 0 20 160" style="enable-background:new 0 0 20 160;" xml:space="preserve">
<g>
	<path d="M10,20C4.5,20,0,15.5,0,10S4.5,0,10,0s10,4.5,10,10S15.5,20,10,20z M10,3c-3.9,0-7,3.1-7,7s3.1,7,7,7s7-3.1,7-7
		S13.9,3,10,3z"/>
</g>
<g>
	<g>
		<defs>
			<rect id="SVGID_1_" x="-380" y="-3271" width="1920" height="4986"/>
		</defs>
		<clipPath id="SVGID_2_">
			<use xlink:href="#SVGID_1_"  style="overflow:visible;"/>
		</clipPath>
	</g>
</g>
<g>
	<path d="M10,160c-5.5,0-10-4.5-10-10s4.5-10,10-10s10,4.5,10,10S15.5,160,10,160z"/>
	<path d="M10,142c-0.8,0-1.5-0.7-1.5-1.5v-121c0-0.8,0.7-1.5,1.5-1.5s1.5,0.7,1.5,1.5v121C11.5,141.3,10.8,142,10,142z"/>
</g>
</svg>
