<?xml version="1.0" encoding="UTF-8"?>
<svg width="600px" height="584px" viewBox="0 0 600 584" version="1.1" xmlns="http://www.w3.org/2000/svg" xmlns:xlink="http://www.w3.org/1999/xlink">
    <title>Group 77</title>
    <defs>
        <path d="M290.812026,582.460948 C130.200314,582.460948 0.000579128928,452.269416 0.000579128928,291.667824 C0.000579128928,131.066232 130.200314,0.874700689 290.812026,0.874700689 C451.423738,0.874700689 581.623473,131.066232 581.623473,291.667824 C581.623473,452.269416 451.423738,582.460948 290.812026,582.460948 Z" id="path-1"></path>
        <mask id="mask-2" maskContentUnits="userSpaceOnUse" maskUnits="objectBoundingBox" x="0" y="0" width="581.622894" height="581.586247" fill="white">
            <use xlink:href="#path-1"></use>
        </mask>
    </defs>
    <g id="Page-1" stroke="none" stroke-width="1" fill="none" fill-rule="evenodd">
        <g id="Artboard-Copy-8" transform="translate(-951.000000, -2937.000000)">
            <g id="Group-40-Copy-2" transform="translate(0.000000, 2778.000000)">
                <g id="Group-77" transform="translate(951.000000, 159.000000)">
                    <g id="Group-8" transform="translate(-0.000579, 0.210348)">
                        <path d="M153.676327,413.263974 L156.468556,413.574824 L156.888011,413.498562 L156.794523,414.432769 L164.690532,415.225228 L174.051737,422.995642 L183.095249,429.429816 L191.321362,428.008197 L193.948953,428.761697 L194.83502,427.074819 L194.835847,427.078135 L203.715548,423.938138 L205.91872,425.041447 L206.191738,429.146321 L210.555888,431.606593 L210.555888,434.826996 L205.047545,437.731576 L207.11338,443.941109 L210.968724,448.399937 L213.750198,450.257575 L213.288549,453.036157 L214.378966,457.405461 L213.146249,462.345899 L218.105247,465.895388 L225.024183,464.828552 L231.204316,473.337544 L234.016401,476.42366 L234.111543,478.684159 L232.996306,479.474961 L229.790414,482.790691 L227.515265,485.070255 L225.446947,489.422151 L222.551303,494.084897 L221.413728,494.810213 L216.863429,495.017446 L213.657537,495.846378 L212.002883,498.436793 L210.865308,501.441673 L210.658477,502.788688 L191.836787,502.270606 L191.733371,495.742762 L191.112875,490.561933 L189.768469,487.142587 L187.079656,482.894307 L185.838666,481.547292 L185.942081,478.231562 L181.184951,473.4652 L179.530297,473.361583 L178.185891,470.978402 L176.117573,468.180755 L174.669751,466.419273 L173.739008,465.797574 L173.118512,460.616745 L172.394601,459.166113 L173.42876,457.404632 L175.807325,457.093782 L176.117573,455.850383 L172.498017,455.539533 L168.257966,451.602104 L168.361382,450.047855 L169.395541,449.426156 L170.843363,449.529773 L171.050195,448.286374 L159.88128,433.261971 L156.882219,427.87391 L156.882219,425.490729 L154.296823,420.724367 L153.883159,415.129072 L153.055832,414.507373 L153.676327,413.263974 Z M355.420934,349.763265 L358.502727,352.028737 L360.607447,361.519186 L364.783794,372.435399 L368.920429,384.316489 L375.555592,399.560558 L379.673199,410.009253 L382.140288,418.352459 L388.903687,418.030004 L393.274455,416.905143 L397.378825,429.239659 L401.62384,435.194711 L409.142588,444.182826 L414.276152,445.091336 L420.835201,445.110402 L430.227844,442.864823 L438.547445,439.712393 L443.658672,435.730201 L445.208255,434.190873 L449.277049,435.21046 L454.087129,433.701803 L454.471836,433.557569 L454.010187,439.564014 L458.464516,442.242295 L460.330966,446.513784 L463.566642,449.75574 L465.506724,457.255092 L468.393268,459.826441 L471.064707,461.164338 L471.059743,461.238942 L470.852911,464.554672 L469.611921,466.627004 L465.475285,470.564433 L464.234295,470.875283 L464.234295,472.843998 L461.85573,475.745262 L461.545482,482.998421 L459.890828,485.692452 L456.271272,485.899685 L452.651716,491.49498 L448.515081,491.909446 L445.619437,490.044348 L438.070077,490.251581 L438.276909,494.189011 L441.482801,496.364959 L440.75889,498.022824 L436.622255,501.856637 L402.495015,502.167486 L396.186646,501.131321 L392.877338,497.608357 L388.533871,496.468575 L385.224563,495.639643 L384.500652,491.391363 L386.982633,487.350317 L388.844119,484.759903 L388.430455,482.998421 L386.56897,482.169489 L386.155306,479.579075 L388.016792,478.439292 L387.499713,476.470578 L383.983573,471.704215 L383.363077,469.321034 L386.775801,466.212537 L385.534811,464.658289 L384.8109,461.964258 L382.639166,459.373844 L383.466493,454.814715 L384.086989,453.15685 L380.467433,450.359202 L378.812779,450.151969 L374.572728,456.990663 L373.848817,460.513626 L366.919953,465.901688 L364.127724,467.145086 L362.266238,467.248703 L360.818416,465.487221 L358.95693,466.108921 L359.060346,468.181252 L357.302276,469.839117 L347.477767,464.140206 L342.927469,457.508746 L339.928408,450.566436 L339.204497,447.976021 L330.620979,447.665172 L330.207316,449.012187 L331.965385,451.395368 L332.172217,453.364083 L329.58682,456.47258 L326.380928,456.887046 L319.658896,462.482341 L318.660312,463.186105 L318.660312,459.949123 L319.213794,453.843206 L318.909338,446.816345 L313.147005,442.487659 L310.613729,437.664929 L309.112958,428.341925 L309.556405,422.12576 L309.559715,414.502896 L310.874337,410.549717 L311.491523,401.607193 L311.242498,395.129085 L314.316018,393.448839 L313.921383,389.097772 L309.393422,385.166145 L306.28019,382.540086 L308.873033,379.385998 L312.465287,379.61727 L318.086975,380.195036 L323.312372,378.655709 L331.608808,370.342344 L337.146935,368.400984 L341.348929,363.886617 L343.02923,360.282419 L345.660957,360.282419 L348.200851,356.464355 L351.892384,351.97237 L355.420934,349.763265 Z M235.298758,400.913791 L237.448981,404.576015 L243.733357,406.465152 L249.193715,405.312936 L253.687756,405.031928 L258.990095,403.171803 L269.25805,406.150158 L275.914724,406.150158 L275.914724,403.098857 L278.505912,401.430216 L279.956216,402.447316 L279.474712,405.825216 L282.0568,414.726294 L282.966032,417.232157 L281.402384,420.054672 L293.785815,432.158745 L302.33624,431.566887 L307.011465,430.902083 L308.22929,438.463606 L311.210977,444.140136 L316.480223,448.100776 L316.726766,453.784766 L316.183212,459.779606 L316.178248,464.540166 L313.660692,464.865107 L310.558216,465.279574 L310.4548,468.180838 L308.386482,470.771252 L304.456679,474.397832 L301.871282,477.713562 L301.043955,480.511209 L298.975637,481.547375 L293.701427,482.272691 L287.806722,484.034172 L286.255484,485.692038 L285.945237,489.111384 L284.911078,491.494565 L284.083751,493.048814 L279.223204,493.256047 L277.154887,495.431995 L274.155826,495.846461 L268.467953,495.846461 L266.503051,494.913912 L264.124486,496.364544 L259.574187,497.607943 L259.160524,498.747725 L256.161463,498.644109 L253.98973,499.265808 L252.645323,500.923673 L248.71552,499.887507 L247.267698,498.229642 L247.47453,492.945197 L242.924231,488.282452 L237.339773,483.20524 L236.703559,481.293722 L236.45867,475.413274 L233.165081,471.812391 L226.147693,462.139577 L218.725742,463.284333 L215.964125,461.3065 L216.937889,457.405544 L215.820997,452.934281 L216.463003,449.080574 L212.625033,446.516686 L209.311588,442.686188 L208.068116,438.94936 L213.037869,436.327447 L213.037869,430.152728 L208.578576,427.639405 L208.299767,423.454953 L203.882668,421.242532 L196.532695,423.842065 L199.28273,418.606527 L199.465569,419.144504 L207.027338,416.557406 L213.286067,413.991859 L217.608851,410.20198 L223.945349,408.879004 L231.382191,407.090167 L233.778131,402.589063 L235.298758,400.913791 Z M374.367633,332.705574 L381.909547,334.26977 L389.523437,336.720923 L398.624035,340.036653 L409.452091,342.220062 L414.973671,348.015958 L423.663087,353.944483 L427.183364,356.659238 L429.708366,359.188311 L429.226861,362.087917 L431.188454,372.752963 L432.328511,380.747188 L436.296371,387.169758 L443.140848,389.256181 L453.843977,392.004092 L474.607404,398.300664 L485.806103,406.315613 L492.567019,417.964602 L500.906476,430.224514 L505.833208,437.080615 L511.167813,446.365488 L513.272533,447.947092 L513.253504,448.494187 L508.703206,452.63885 L505.600729,453.571399 L504.256323,458.026911 L503.32558,459.995626 L501.981173,461.446258 L500.119688,461.446258 L495.569389,456.990746 L490.812258,455.436497 L484.297058,455.229264 L478.092105,455.540114 L475.093045,455.540114 L471.266657,458.234144 L471.249283,458.477022 L469.797325,457.749219 L467.720734,455.898213 L465.79968,448.47678 L462.41674,445.087274 L460.421227,440.517369 L456.602286,438.222055 L457.245119,429.859784 L453.281395,431.351033 L449.202673,432.628418 L444.447197,431.436413 L442.074423,433.814621 L437.31812,437.519949 L429.56772,440.465975 L420.686365,442.623687 L414.600547,442.623687 L410.464739,441.892568 L403.615299,433.710175 L399.615172,428.098302 L394.893617,413.906977 L388.654744,415.551579 L383.966282,415.775391 L382.036955,409.250863 L377.848198,398.607369 L371.247783,383.452824 L367.11363,371.579194 L363.010088,360.88928 L360.723356,350.576531 L357.522428,348.224849 L360.533071,344.404299 L366.536983,338.662283 L370.021684,334.64196 L374.367633,332.705574 Z M498.319341,317.635083 L505.711508,321.831968 L507.517563,324.772192 L506.788688,330.126267 L501.775086,337.662093 L501.775086,343.243296 L508.823085,346.621196 L521.00713,351.064274 L533.778578,356.508703 L539.763462,361.906712 L538.176648,362.388322 L538.693728,365.082353 L536.418578,366.740218 L534.660508,372.749979 L536.004915,375.340393 L536.62541,377.205491 L536.832242,379.381439 L542.933779,382.282703 L547.690909,380.832071 L549.138732,378.552506 L550.483138,376.894641 L555.033437,380.728454 L556.171011,383.318869 L557.929081,384.044185 L558.859824,382.489936 L560.411062,382.282703 L562.272548,386.012899 L564.134034,387.359915 L564.961361,390.675645 L563.927202,391.608194 L563.72037,394.923924 L562.893043,395.752857 L562.789628,402.59155 L554.619773,409.637477 L554.309525,412.227891 L551.93096,414.714689 L549.242147,415.232771 L548.828484,417.823186 L547.277246,420.931683 L545.519176,424.247413 L544.485017,426.423361 L534.143429,434.194603 L531.144369,434.29822 L523.801841,430.257174 L521.113028,432.018655 L521.31986,436.577784 L524.732584,439.375432 L528.558972,440.100748 L530.730705,442.691162 L530.213626,443.727328 L525.042832,444.86711 L522.664266,445.17796 L517.183225,444.659877 L515.011491,442.380312 L513.356837,443.002012 L513.356837,444.901096 L513.064791,444.682258 L507.952737,435.785325 L502.938308,428.797424 L494.689858,416.675943 L487.684052,404.602541 L475.717594,396.038838 L454.511548,389.609638 L443.809245,386.862555 L437.913713,385.063772 L434.711957,379.881285 L433.638086,372.35292 L431.74599,362.066696 L432.107531,359.894064 L438.390253,359.195274 L446.642013,361.400234 L454.023425,360.830758 L464.187964,358.02565 L470.371407,354.811878 L474.367396,351.07588 L478.892875,350.225395 L482.640667,345.313969 L485.276531,343.553317 L487.863582,336.927659 L495.810886,323.474913 L498.319341,317.635083 Z M166.324503,365.200641 L173.206209,369.002955 L178.788185,371.666315 L183.001761,376.135919 L183.254096,381.419535 L183.256578,389.781807 L183.542833,394.649299 L186.373946,402.873968 L189.481387,410.80022 L194.261682,416.486698 L197.126716,417.37034 L192.691415,425.814676 L191.458698,425.46155 L183.68927,426.803592 L175.598839,421.0508 L165.69077,412.825303 L158.840503,412.139775 L158.950537,410.984244 L157.916378,410.673394 L157.399299,411.502326 L156.054892,411.502326 L154.813902,410.984244 L154.710486,407.564897 L149.33286,404.249167 L147.57479,403.731084 L143.541571,406.735964 L140.439095,408.186596 L138.267361,411.191477 L135.061469,415.02529 L134.02731,416.579538 L131.338497,416.890388 L129.890675,417.926554 L129.890675,419.895268 L125.650624,423.521848 L119.755919,422.900149 L118.618344,426.112262 L118.825176,430.567775 L116.756858,432.329256 L117.170522,433.883505 L119.032008,434.608821 L118.514928,436.784769 L114.171461,436.577536 L110.655322,432.53649 L107.449429,432.122023 L105.277696,433.054572 L103.519626,432.847339 L103.002546,433.883505 L100.313734,434.297971 L99.0727431,432.329256 L96.7975937,431.189474 L95.7634349,430.775008 L91.9370474,433.158189 L90.7994728,434.401588 L88.3174917,434.401588 L86.8696693,432.640106 L84.9047676,432.950956 L84.4911041,434.297971 L82.8364501,434.297971 L81.8022913,432.53649 L80.354469,433.054572 L79.2168943,435.437754 L79.0100625,436.577536 L77.1485767,438.131784 L74.9768433,437.820935 L72.8051098,435.748603 L71.2538716,434.608821 L71.8743669,432.640106 L72.9085257,432.743723 L73.6324368,429.635226 L75.0802591,427.770128 L78.2861514,427.148428 L78.8032308,424.97248 L78.4929831,420.413351 L77.8724879,416.786771 L78.1827355,415.543373 L82.2159548,413.263808 L83.8706089,411.916793 L83.2501136,409.429995 L80.5613007,407.77213 L78.1827355,407.046814 L77.2519926,407.77213 L75.183675,408.290213 L73.7358527,407.357664 L70.7367922,404.663633 L70.943624,402.280452 L69.5992175,400.311737 L68.5650588,397.824939 L68.9787223,395.130909 L70.1162969,393.058577 L73.4256051,393.162194 L75.183675,392.126028 L77.1485767,391.711562 L77.8724879,389.639231 L79.5271419,387.670516 L81.9057072,385.287335 L82.4227865,382.593304 L82.8364501,378.034175 L85.5302269,376.634937 L91.6739574,377.128152 L93.7050453,377.497027 L93.9383515,380.542525 L97.7912135,384.997208 L101.285843,388.501935 L105.421651,386.085597 L109.183507,382.920732 L111.400743,380.18111 L114.21531,378.642611 L116.783333,376.372994 L120.831444,376.913458 L123.813958,374.820403 L126.907334,373.935932 L129.643304,375.85574 L132.677112,375.095609 L136.089009,379.937404 L140.500317,377.928901 L139.572883,380.715772 L141.666021,384.491559 L144.797454,383.796085 L149.017649,384.641596 L152.842382,383.247332 L154.933037,379.060393 L166.324503,365.200641 Z M261.479687,361.696992 L285.364618,373.935352 L291.426444,377.799007 L297.357551,381.239077 L299.175189,379.939311 L302.555647,382.648262 L307.781044,387.057354 L311.539591,390.320033 L311.696783,392.048357 L308.704341,393.68467 L309.006316,401.575279 L308.468553,409.915998 L307.077816,414.099621 L307.077816,421.992716 L306.616995,428.445956 L302.120473,429.089208 L294.722515,429.600659 L284.492616,419.601246 L285.685621,417.449337 L284.414847,413.954558 L282.007325,405.646996 L282.628648,401.28681 L278.564818,398.436111 L273.432908,401.741065 L273.432908,403.66336 L269.610657,403.66336 L258.91911,400.562323 L253.190697,402.570827 L248.948992,402.836914 L243.841075,403.900435 L239.094699,402.474671 L235.729133,396.741773 L231.837387,401.03067 L229.717775,404.933285 L223.40196,406.451889 L216.464823,407.900863 L211.962509,411.847411 L206.156328,414.228934 L200.247559,416.249043 L205.116378,409.175761 L212.032005,398.51486 L222.880744,395.449467 L225.604305,389.689215 L228.156609,379.831549 L230.607151,371.37478 L232.868236,366.841348 L237.706445,368.054076 L244.099201,366.597641 L251.545144,364.663742 L259.504857,361.917488 L261.479687,361.696992 Z M163.551137,298.723899 L167.206268,303.171122 L173.421149,305.435766 L182.894871,312.485008 L200.306795,326.387036 L202.560434,331.467563 L206.609373,333.680813 L210.704641,331.04315 L222.022475,332.589938 L223.675475,334.00907 L227.69132,336.209057 L232.782691,336.775218 L237.842623,338.296309 L244.257717,345.793175 L253.954817,356.237725 L249.828937,357.555728 L242.152997,359.478852 L230.570418,361.922545 L230.930305,365.166158 L228.336635,370.363565 L225.762821,379.175118 L223.310623,388.731052 L221.121516,393.362298 L210.459753,396.376297 L203.054348,407.791527 L198.054811,415.054634 L195.688656,414.325173 L191.643027,409.510733 L188.701879,402.013867 L186.000656,394.162218 L185.735912,389.709192 L185.735084,381.361013 L185.437247,375.098427 L180.274726,369.62167 L174.339482,366.791694 L166.901812,362.680189 L167.565328,356.913305 L165.570643,352.345887 L165.092447,348.753293 L166.711526,345.508023 L169.171997,343.783014 L173.99035,340.942262 L178.218818,336.100467 L179.153698,330.168626 L175.451409,320.463484 L171.816962,313.167219 L166.685052,307.111038 L166.608938,307.176524 L163.840702,301.881303 L162.663415,298.813423 L163.551137,298.723899 Z M143.652847,304.221794 L148.793029,307.580629 L154.716691,310.84911 L161.707604,310.265541 L165.47277,309.515357 L169.664836,314.416835 L173.154501,321.408052 L176.599491,330.435957 L175.878889,335.002546 L172.386742,339.002974 L167.871191,341.664677 L164.773678,343.832335 L162.531622,348.324321 L163.156254,353.021053 L165.022704,357.295029 L164.276455,363.779768 L157.887008,371.51288 L152.923046,377.592271 L151.064869,381.249521 L148.822813,382.06602 L144.770565,381.253666 L142.936381,381.66233 L142.272865,380.464522 L144.65474,373.305032 L136.931642,376.823022 L133.724095,372.269695 L130.139287,373.168258 L127.36195,371.219438 L122.732228,372.544901 L120.200607,374.319645 L115.974621,373.755971 L112.898619,376.52958 L109.774632,378.237181 L107.487073,381.101142 L104.076831,383.992459 L101.688337,385.389211 L99.6373938,383.334287 L96.3495962,379.533631 L96.0327299,375.393942 L92.0565962,374.670284 L85.0400356,374.100807 L84.9639215,375.053251 L84.3872746,374.822807 L83.8701952,372.646859 L84.5941063,370.367295 L86.0419287,370.470912 L85.6282651,367.362415 L85.0077699,366.222632 L83.7667793,365.704549 L83.7667793,362.906902 L84.904354,361.76712 L86.1453445,359.383939 L86.6624239,354.51396 L87.1795033,350.162064 L88.2136621,347.57165 L90.1785638,345.810168 L90.0751479,341.147423 L88.317078,340.31849 L86.3521763,339.385941 L85.3180175,338.038926 L84.904354,336.070211 L81.8018776,331.925548 L81.7100443,327.391287 L81.7960863,327.455944 L86.7600485,320.824484 L89.3131797,316.572889 L91.2698082,311.31497 L91.5717825,310.951897 L92.0723154,311.537124 L92.7300404,314.396112 L91.5941204,316.672361 L96.146901,319.479126 L98.4501795,320.637974 L99.1418249,324.338329 L99.1418249,328.953825 L101.739632,333.868566 L104.198448,339.89159 L107.732789,346.031493 L142.625306,340.495882 L143.274758,333.021397 L142.493761,328.067696 L144.092985,325.396047 L144.092985,319.675583 L140.580154,314.802289 L141.30241,310.702388 L142.634407,306.434215 L143.652847,304.221794 Z M285.117496,293.300359 L288.093391,295.218509 L290.107933,297.235302 L292.54772,301.107246 L295.363941,298.081642 L298.914829,296.854822 L302.443379,296.619405 L304.40828,298.026103 L309.985292,297.309906 L319.243081,300.444928 L322.017936,303.104973 L324.020068,308.197935 L328.339542,308.197935 L332.515889,306.032763 L336.983455,304.582131 L340.108269,306.460492 L340.493803,309.93289 L342.783017,312.836641 L344.599828,314.555847 L344.727236,318.800811 L346.390991,323.300257 L350.491223,324.549458 L353.976752,323.610277 L356.392547,324.767467 L353.496075,328.897209 L350.01882,335.311489 L344.15638,338.313054 L340.928977,340.78576 L336.78076,345.358152 L335.074811,349.036954 L330.540232,351.635658 L322.140381,357.01543 L315.978449,360.857532 L311.772318,363.028507 L307.164934,362.779827 L299.091049,360.217596 L291.378707,357.045271 L284.50031,354.477238 L282.704183,353.190735 L279.227755,351.432569 L276.800377,350.427903 L273.326431,349.35112 L271.30858,347.778635 L269.524863,342.800895 L268.381497,337.791655 L263.330666,330.794636 L261.446015,330.066004 L265.297222,329.867889 L267.793268,328.149512 L273.798835,321.608405 L277.297601,316.799768 L278.876968,312.450359 L280.941976,311.02791 L284.814694,305.440076 L284.310852,302.751019 L283.764816,299.334159 L283.281657,295.579094 L285.117496,293.300359 Z M581.611235,249.757279 L583.782968,251.311527 L582.645394,253.280242 L584.713711,258.979153 L587.919603,264.678064 L589.884505,268.926344 L590.918664,271.620374 L590.091337,275.143338 L590.505,278.251835 L592.159654,280.738632 L593.504061,284.157979 L593.504061,287.991792 L593.607477,293.17262 L593.710893,295.452185 L597.950944,298.042599 L598.778271,300.73663 L597.53728,301.980029 L595.572378,302.498112 L594.227972,304.466826 L594.434804,306.953624 L595.262131,309.647655 L595.262131,310.99467 L591.952823,309.025955 L589.781089,307.782556 L585.230791,308.611489 L584.506879,310.062121 L583.9898,311.616369 L578.71559,310.891054 L577.267768,311.409136 L571.786726,312.238069 L568.994498,313.067001 L568.477418,311.512753 L566.615932,311.616369 L560.617811,318.869529 L558.549494,322.496109 L557.722167,323.428658 L558.032414,325.50099 L559.169989,326.019072 L558.549494,327.987787 L557.411919,328.81672 L556.688008,329.645652 L557.101671,331.407134 L556.274344,333.583082 L554.206027,334.412014 L553.482116,336.277113 L553.3787,339.178377 L547.173747,345.395371 L545.725925,353.788313 L541.58929,356.89681 L541.58929,360.206737 L535.130347,354.383486 L521.917107,348.752547 L509.839787,344.350916 L504.256985,341.676779 L504.256985,338.41493 L509.17048,331.02997 L510.097086,324.22692 L507.490179,319.983615 L499.30626,315.337448 L507.711075,295.772153 L516.072869,281.448199 L526.657691,274.554796 L530.46505,273.792178 L537.191219,273.522774 L544.977194,274.10054 L548.358479,271.945316 L554.183689,267.230348 L560.399397,263.709871 L567.012222,260.541691 L570.415845,255.426348 L575.37898,251.163148 L576.337025,251.51876 L577.060936,252.347693 L579.129254,251.104294 L581.611235,249.757279 Z M49.986272,214.156781 L54.8095886,217.891122 L60.8226015,226.102528 L69.372199,236.325753 L78.8947332,244.486594 L92.4910256,254.223235 L107.76431,260.930129 L115.407984,266.400255 L126.411434,273.841582 L141.831982,284.877161 L152.800684,293.115092 L160.283857,299.541806 L161.550495,302.840958 L163.874457,307.303102 L161.43136,307.793001 L155.257018,308.308597 L150.110217,305.47199 L142.603879,300.567196 L140.34693,305.46453 L138.910691,310.036921 L137.954301,315.406746 L141.611086,320.480643 L141.611086,324.70737 L139.901829,327.563042 L140.776313,333.108601 L140.321283,338.344139 L109.027638,343.308616 L106.463752,338.870511 L104.013209,332.869868 L101.623889,328.334778 L101.623889,324.222444 L100.661707,318.966183 L97.4012115,317.332357 L94.8307065,315.748267 L95.3494405,314.708785 L94.3533388,310.382586 L91.5453908,307.100013 L89.0890568,310.052671 L87.1249825,315.393483 L84.735662,319.383136 L81.535561,323.657941 L81.3882968,321.666845 L68.7715596,321.874078 L66.0827467,320.837912 L64.117845,319.801747 L63.0836862,317.936649 L62.5666068,317.107716 L59.6709622,317.211333 L57.292397,318.765581 L55.4309112,320.112596 L53.2591777,322.184928 L51.294276,324.464492 L50.9840284,325.604275 L43.8483327,330.57787 L42.7107581,330.370637 L41.7800151,326.536824 L40.4356087,324.982575 L40.8492722,322.703011 L42.0902628,321.977695 L41.7800151,320.734296 L40.1253611,320.216213 L38.6775388,319.69813 L38.2638753,316.589633 L33.2999131,312.963053 L22.234414,312.548587 L16.1328771,307.471375 L10.9620832,307.574992 L2.27373675e-13,295.86632 L0.206831758,294.415688 L2.79222873,292.446973 L5.37762571,290.996341 L8.06643857,290.685491 L11.6859943,291.099957 L12.9269849,289.960175 L15.408966,285.608279 L16.9602042,284.054031 L18.82169,285.401046 L19.5456011,286.437212 L19.2353535,281.567233 L17.5806994,277.215337 L16.4431248,275.661089 L16.7533724,273.795991 L18.0977788,272.552592 L19.9592647,273.485141 L21.5105028,273.692374 L23.6822363,271.516426 L25.5437221,271.205576 L24.819811,269.962178 L23.4754045,268.615162 L24.6129792,266.335598 L25.7505539,266.231981 L25.8539698,263.8488 L30.1974367,261.465619 L33.0930813,259.186055 L35.2648148,257.52819 L37.3331323,255.559475 L38.5741229,253.90161 L39.9185293,254.730542 L40.1253611,255.973941 L40.6424405,257.113723 L40.8492722,252.761827 L42.9175898,249.446097 L44.2619962,247.270149 L44.468828,245.508668 L46.6405615,242.400171 L48.8122949,239.602523 L50.6737807,238.773591 L51.0874443,235.250627 L50.9840284,232.349364 L49.9498696,230.173416 L48.9157108,227.997468 L46.6405615,223.956422 L46.9508091,217.635811 L48.0883838,216.496029 L49.3293743,215.667096 L49.9498696,214.63093 L49.986272,214.156781 Z M480.240674,263.160869 L480.574086,263.227184 L482.435572,264.885049 L482.952652,267.475463 L482.22874,270.791193 L481.297998,275.557555 L480.160423,280.116684 L479.436512,283.639647 L479.539928,285.401129 L482.22874,287.266227 L484.090226,289.131326 L485.434633,290.271108 L489.26102,287.058994 L491.53617,285.504746 L493.707903,283.950497 L496.2933,285.193896 L497.775043,287.314305 L498.286331,287.572932 L496.191539,290.721218 L492.948417,300.021012 L491.61642,305.036883 L489.546448,308.807697 L486.665695,310.923962 L481.304616,317.41782 L475.176605,324.273921 L468.086412,329.705916 L462.5003,337.742417 L455.295936,340.533433 L449.310225,340.733205 L445.553333,340.831848 L432.877856,337.580775 L423.491003,333.696397 L419.499978,331.656394 L422.646302,324.268118 L433.087169,301.999674 L438.981875,289.669303 L439.062125,289.502687 L439.634636,285.767517 L437.851746,284.784403 L438.957882,282.567009 L443.944182,273.198413 L446.550262,267.79626 L449.305261,268.296106 L456.637861,269.136644 L464.901203,268.821649 L473.569108,267.207718 L478.040811,264.583317 L480.240674,263.160869 Z M395.566068,265.921049 L404.378756,270.631043 L408.914163,276.207273 L417.587032,281.293603 L428.511885,285.603223 L434.58943,285.763207 L434.565437,285.811285 L436.918355,287.107735 L436.664366,288.760627 L430.845775,300.933501 L420.381743,323.251681 L417.301604,330.481631 L414.122186,328.720978 L408.503809,327.313451 L396.723499,323.196143 L386.423277,319.344922 L376.583877,315.259942 L372.329761,314.965671 L363.225855,315.113221 L359.839605,318.505213 L357.673663,322.663139 L354.218745,320.96963 L350.533003,321.962691 L348.290947,321.279651 L347.196393,318.317875 L347.049129,313.445409 L346.062955,312.521978 L351.093104,307.715827 L353.853067,304.410873 L357.143346,301.974641 L358.614334,299.026956 L359.261304,293.57258 L362.362125,291.465434 L366.181894,291.306279 L367.768707,286.378275 L371.081325,281.676569 L372.078254,278.478548 L368.826859,275.812701 L368.487655,267.895566 L372.913027,270.430442 L377.410377,271.140837 L382.281678,269.144767 L386.778201,266.497986 L390.996741,265.921049 L395.566068,265.921049 Z M165.91903,233.718346 L175.546635,243.098546 L183.983716,250.44206 L195.46536,259.891891 L195.28583,260.109071 L202.59361,266.187633 L215.188009,272.803344 L216.472021,274.946963 L229.674506,279.874139 L232.039006,281.650541 L230.868339,284.208627 L230.142773,288.753664 L235.640361,291.345736 L243.742375,295.475478 L247.664732,295.632975 L253.394799,293.9519 L267.201233,292.719277 L272.199943,291.887029 L276.887577,291.334131 L280.298647,290.34107 L283.012279,291.955001 L280.684181,294.843002 L281.308813,299.6906 L281.865604,303.176261 L282.184125,304.876402 L279.161899,309.235758 L276.8156,310.852177 L275.084832,315.621025 L271.918651,319.98204 L266.27049,326.180797 L264.470226,327.420051 L259.407812,327.681165 L256.00998,327.953884 L255.983505,327.953884 L255.127222,327.622311 L255.108193,327.674534 L250.934328,320.295376 L248.32163,316.995396 L244.238771,316.314842 L241.952039,317.079118 L237.214764,314.705055 L233.500066,312.471911 L227.486226,312.618632 L222.55122,313.377934 L217.545891,314.655319 L213.051851,313.154122 L204.43524,307.086336 L197.67846,301.698274 L190.645353,297.131685 L184.937624,291.685598 L178.098938,286.22542 L170.75062,281.359586 L163.05896,275.717871 L157.353713,271.258214 L149.096162,265.466462 L141.6345,260.067624 L140.71203,259.420228 L145.092727,256.803288 L151.814759,254.834573 L156.571889,252.969475 L159.05387,251.829693 L159.881197,248.928429 L160.501693,248.410346 L160.501693,245.612699 L159.157286,244.887383 L159.364118,242.504202 L163.190505,239.706554 L163.811001,235.561892 L165.91903,233.718346 Z M366.029749,268.503008 L366.3946,277.031895 L369.209994,279.339643 L368.829423,280.562318 L365.522597,285.254077 L364.351102,288.893919 L361.553082,289.00997 L356.931633,292.151624 L356.200276,298.302304 L355.189283,300.329044 L352.257236,302.500847 L349.328498,305.964956 L344.309105,310.760331 L342.881966,308.949942 L342.440173,304.961119 L337.291717,301.867543 L331.652656,303.699483 L327.735262,305.711303 L325.709966,305.711303 L324.128116,301.685177 L320.559855,298.265831 L310.237296,294.770222 L305.059056,295.435855 L303.163649,294.078892 L298.418929,294.395545 L293.971219,295.932386 L292.927959,297.052273 L292.132898,295.790638 L289.754333,293.365181 L286.682468,291.359994 L286.744517,291.282903 L283.436864,289.315017 L285.187488,286.157613 L288.91956,282.419127 L289.126392,278.274465 L292.311601,275.081416 L292.216458,274.221813 L297.278045,271.931473 L305.821851,271.931473 L315.145827,273.177358 L323.366148,272.960178 L327.518503,270.989805 L332.056391,268.90504 L338.053685,270.707968 L345.956313,269.851681 L349.17296,269.251534 L355.782476,270.05394 L362.013076,270.945872 L366.029749,268.503008 Z M264.675651,204.045462 L268.62862,210.153037 L266.994649,212.51881 L267.536548,220.925844 L271.798937,219.669182 L275.412702,223.619875 L274.906377,226.495442 L273.916067,230.4652 L272.759464,232.781237 L273.708408,238.245561 L275.804855,241.046524 L273.455246,244.125179 L273.216976,248.416563 L273.884629,251.257315 L268.512794,254.700701 L271.803074,261.292372 L280.25091,269.10589 L286.919166,271.045592 L289.454923,271.83971 L289.713049,274.16901 L286.69496,277.193785 L286.488129,281.338448 L283.187094,284.64506 L281.301615,288.045341 L280.633135,287.647453 L276.491536,288.877589 L271.851059,289.425514 L266.932599,290.246986 L253.053361,291.485411 L247.357215,293.131671 L244.383801,293.012305 L236.731853,289.112177 L232.888092,287.299302 L233.265353,284.936844 L235.129321,280.864298 L230.874378,277.667106 L218.154225,272.923125 L216.956255,270.92291 L204.078083,264.19032 L197.966618,259.107306 L211.357733,244.760142 L212.322397,242.150662 L214.523914,243.365877 L215.304083,248.532614 L225.337078,247.145809 L226.288504,243.491046 L227.510466,242.265884 L227.963842,240.773805 L228.337793,241.149311 L233.985128,240.138843 L233.446538,235.456203 L233.446538,232.270615 L237.421844,227.787748 L243.820392,223.863581 L246.75823,223.35213 L250.376958,222.054021 L252.402255,219.102193 L251.905859,216.119693 L251.02641,213.634554 L252.353443,212.400273 L253.654828,210.659515 L257.126292,210.659515 L258.982814,207.952221 L261.189295,205.004537 L263.223692,204.551111 L264.675651,204.045462 Z M434.410148,203.820407 L435.450925,214.250036 L431.849571,220.435531 L432.280608,229.81656 L433.483542,236.778765 L436.909503,241.606468 L442.182058,251.461647 L443.64229,256.921825 L443.236073,262.526238 L443.764735,267.290114 L444.015415,267.335705 L441.731992,272.071397 L436.753138,281.4259 L435.814122,283.307577 L429.012667,283.128528 L418.757948,279.098258 L410.554173,274.287962 L405.988155,268.671944 L396.186812,263.434748 L390.912602,263.434748 L385.946158,264.102039 L381.258523,266.877305 L377.112787,268.576617 L373.75053,268.044442 L368.438263,265.003089 L368.438263,254.982952 L373.676898,251.483199 L380.396448,244.781279 L386.135616,238.31229 L387.134199,233.308853 L390.680123,232.761757 L392.778224,224.215463 L394.800212,223.598737 L397.652835,225.027817 L401.406418,225.027817 L405.698591,217.860866 L408.993007,216.446707 L415.325368,216.050477 L418.477484,216.226211 L422.902029,208.8885 L426.565433,209.014498 L434.410148,203.820407 Z M296.06932,162.588805 L296.885892,167.913038 L300.603072,171.198098 L303.175232,175.360168 L306.17512,180.571667 L306.950325,184.452729 L307.392945,189.104699 L311.764541,194.680099 L310.924804,197.370814 L310.637722,202.11065 L311.78357,203.451034 L311.430301,204.870167 L312.893843,208.640981 L312.658055,209.940747 L301.264934,215.240942 L298.343642,221.095692 L305.207147,226.499504 L312.2477,227.306055 L315.302192,231.589978 L324.08675,233.621692 L331.526075,232.131271 L334.377044,231.859382 L334.219024,235.015957 L338.8322,241.178241 L341.550796,243.734669 L342.148127,248.128012 L345.166216,252.799875 L350.06151,250.464772 L352.095907,251.075696 L354.303215,250.154752 L356.781887,252.173202 L358.176761,255.765796 L360.475902,258.728401 L364.223694,255.974687 L365.956944,255.974687 L365.956944,265.637554 L361.485241,268.35811 L356.107616,267.588032 L349.091882,266.736718 L345.641929,267.384943 L338.286164,268.181548 L331.87438,266.254279 L326.469452,268.735275 L322.776264,270.487638 L315.278199,270.686582 L306.068395,269.455617 L296.743592,269.444841 L291.928548,271.623276 L291.743227,269.95049 L287.636376,268.664815 L281.505055,266.881781 L273.820014,259.773685 L271.731841,255.590062 L276.703249,252.401988 L275.715421,248.196813 L275.891641,245.027804 L278.918831,241.060533 L276.051315,237.230864 L275.344778,233.161635 L276.196925,231.454862 L277.324572,227.056546 L278.069993,222.843911 L272.582333,216.845755 L269.813269,217.663083 L269.527014,213.221662 L271.616842,210.198545 L266.888668,202.89565 L267.499236,198.756789 L267.942683,194.013637 L266.394754,190.489016 L266.263209,185.207887 L265.34074,178.414785 L266.951545,175.293854 L269.975426,174.710285 L274.861619,173.640133 L277.664603,169.627271 L279.086778,169.627271 L285.015404,168.607684 L288.558845,166.682074 L291.000287,165.187508 L296.06932,162.588805 Z M484.551958,180.092959 L486.57229,180.645028 L491.329421,180.126945 C491.329421,180.126945 494.535313,181.059494 494.84556,181.163111 C495.144317,181.26289 498.319994,182.515669 498.554819,182.608331 L498.568532,182.613743 L501.153929,184.996924 L501.360761,186.758405 L501.567593,189.866902 L501.671008,193.597099 L501.981256,196.498363 L500.843681,198.052611 L501.050513,199.399627 L502.498336,201.782808 L503.015415,203.855139 L502.808583,208.103418 L502.291504,210.382983 L500.326602,212.662547 L498.671948,214.942112 L497.948037,216.49636 L499.292443,218.465075 L500.533434,221.159106 L500.947097,223.956753 L500.63685,225.925468 L499.189027,227.272483 L497.741205,228.101416 L495.052392,229.759281 L494.225065,231.831612 L492.570411,235.561809 L491.743084,238.877539 L490.812341,242.711352 L489.778182,245.923465 L486.985954,247.374097 L485.021052,248.824729 L482.849319,249.964512 L482.021991,250.897061 L481.81516,252.969392 L481.091249,254.730874 L478.919515,257.942987 L478.402436,258.979153 L478.46614,261.349071 L476.741163,262.465643 L472.687261,264.843022 L464.715965,266.340903 L456.731431,266.644292 L449.667713,265.837741 L446.026647,265.175424 L445.727982,262.478906 L446.148264,256.683839 L444.54325,250.679051 L439.060553,240.362986 L435.831496,235.795568 L434.755971,229.623336 L434.362163,221.05466 L438.000747,214.806167 L436.424689,199.027436 L436.465228,198.86082 L434.974385,194.377953 L433.760696,191.846393 L438.895088,188.359074 C439.356736,188.138578 441.623612,187.059308 443.887179,185.976722 C445.157126,185.369114 446.427073,184.760678 447.378499,184.301449 C447.949355,184.026244 448.405212,183.805748 448.757653,183.609291 C449.067074,183.582765 449.422824,183.527226 449.828215,183.464227 C450.567845,183.349835 451.554019,183.191509 452.539365,183.032354 C454.433883,182.725833 456.326866,182.413931 456.473354,182.389767 L456.482406,182.388273 L458.774929,181.992043 L461.380182,185.124579 L463.77033,188.645885 L469.319212,185.233998 L473.221714,182.888119 L478.907105,182.278025 L484.551958,180.092959 Z M258.643693,114.434124 C258.643693,114.434124 262.930341,120.926515 268.17582,121.456803 L268.468201,121.48005 L273.225332,125.521097 L277.879046,132.567023 L280.361027,134.535738 L280.981523,140.545499 L286.255732,143.964846 L290.702615,149.767373 L291.84019,155.673518 L295.597082,159.513133 L295.671541,159.998888 L289.828131,162.99465 L287.320502,164.527346 L284.189069,166.227487 L278.979391,167.140971 L276.372484,167.140971 L273.384178,171.417434 L269.475886,172.27455 L265.300366,173.079443 L262.774537,177.971803 L263.783876,185.339356 L263.925348,191.041583 L265.411228,194.424456 L265.035621,198.458042 L264.593829,201.445515 L262.613208,202.14016 L259.753966,202.776781 L256.967528,206.501175 L255.820853,208.173131 L252.397374,208.173131 L250.578909,210.658271 L248.131675,212.93452 L249.476909,216.642335 L249.789639,218.520696 L248.781954,219.989565 L246.224687,220.921285 L242.928616,221.494906 L235.811949,225.860065 L230.964639,231.325217 L230.964639,235.527905 L231.251722,238.100912 L229.176786,238.473103 L226.794084,236.084948 L225.316478,240.947466 L224.057286,242.209931 L223.354058,244.908935 L217.390685,245.733723 L216.794182,241.781372 L210.997102,238.577548 L209.204284,243.426804 L196.242551,257.31391 L185.585752,248.542975 L177.226439,241.268263 L167.794911,232.078717 L169.499205,230.588296 L171.981186,227.272566 L173.429008,226.236401 L175.497326,227.997882 L176.221237,229.241281 L174.256335,231.209996 L174.152919,232.971477 L175.083662,234.940192 L176.117821,235.872741 L178.082723,235.665508 L179.633961,235.665508 L180.771536,237.11614 L182.012526,236.80529 L183.563764,234.940192 L185.94233,235.147425 L186.769657,235.872741 L189.355054,235.561892 L192.147282,234.732959 L191.733619,233.075094 L191.630203,228.826815 L193.078025,226.961716 L194.939511,225.821934 L195.249759,223.749603 L194.112184,222.091738 L193.801937,220.641106 L194.319016,219.397707 L194.319016,218.050692 L193.078025,215.045811 L193.284857,212.35178 L194.836095,211.004765 L195.663422,210.175832 L195.560006,208.932434 L194.732679,207.481802 L194.112184,206.134786 L194.422432,204.787771 L195.353175,204.166072 L195.663422,202.611823 L195.146343,199.503326 L194.112184,197.845461 L193.284857,196.291212 L193.388273,194.736964 L194.319016,193.804415 L195.042927,190.074218 L195.353175,187.89827 L197.524908,185.618706 L198.869315,183.649991 L200.420553,181.681276 L202.385454,180.334261 L201.868375,179.194479 L201.144464,177.847463 L201.24788,176.189598 L201.661543,175.257049 L203.523029,173.599184 L204.143524,171.837702 L204.350356,168.314739 L202.075207,165.413475 L201.041048,163.859227 L201.454712,161.579662 L203.523029,158.885631 L204.76402,157.434999 L206.418674,156.398834 L206.832337,154.637352 L206.418674,153.393953 L206.108426,152.150555 L206.418674,149.352907 L207.039169,148.627591 L206.728921,147.280576 L205.591347,144.793778 L205.074267,143.653996 L205.074267,141.788898 L205.177683,139.9238 L203.419613,137.644235 L202.282039,136.29722 L202.592286,134.639355 L203.109366,133.499572 L205.074267,133.810422 C205.074267,133.810422 213.356011,142.108238 219.639205,137.903376 L219.862738,137.747852 L224.206205,137.022536 L236.305863,128.73321 C236.305863,128.73321 240.400966,130.834772 244.370357,126.776583 L244.579133,126.557262 L247.16453,121.169201 L258.643693,114.434124 Z M309.42908,154.093407 L315.240225,159.525402 L319.395889,163.032615 L322.712643,163.814299 L324.442584,166.510816 L327.531823,168.574858 L330.495308,173.453126 L336.869036,176.094934 L342.794352,177.549711 L342.283064,181.477193 L344.13214,187.501046 L348.994341,191.265229 L354.298334,193.838235 L357.672174,193.440348 L365.636024,199.529686 L372.155361,197.57009 L376.05538,198.321102 L375.213989,203.659428 L387.738893,196.339125 L389.034487,193.524899 L394.42535,188.723721 L398.832521,183.877782 L400.035454,180.261149 L403.248793,177.798391 L404.028962,177.021681 L411.607278,185.418767 L415.337695,188.635026 L419.540517,191.355582 L421.0901,194.341397 L426.001113,194.218715 L428.520324,193.669962 L431.435825,192.743215 L432.644549,195.241618 L433.886367,198.971814 L433.255944,201.603675 L425.85964,206.501838 L421.526929,206.35263 L417.126376,213.65967 L415.316185,213.559369 L408.409659,213.992072 L403.982632,215.892814 L400.000707,222.540853 L398.239327,222.540853 L395.025162,220.931066 L390.70486,222.24824 L388.665499,230.556631 L385.040152,231.116161 L383.833082,237.164881 L378.591138,243.075999 L372.197554,249.482819 L366.201915,253.487392 L363.411341,253.487392 L360.95418,255.293636 L360.357677,254.525216 L358.856906,250.658245 L354.716962,247.287806 L351.960308,248.438364 L349.85807,247.806717 L346.06643,249.616277 L344.533393,247.242214 L343.89056,242.517299 L340.750854,239.596141 L336.743282,234.242894 L336.999753,229.110973 L331.226665,229.661384 L324.124063,231.07803 L316.775744,229.378718 L313.62611,224.960508 L306.18844,224.109194 L301.468539,220.393918 L303.097546,217.130411 L314.87041,211.653653 L315.461949,208.39512 L314.029845,204.705541 L314.503077,202.808114 L313.167771,201.248063 L313.340682,197.963004 L314.522932,194.172295 L309.793931,188.141811 L309.415015,184.153816 L308.529775,179.682554 L305.304855,174.083944 L302.519244,169.576209 L299.203318,166.644274 L298.397501,161.396302 L298.975803,161.579496 L300.733873,158.885466 L309.42908,154.093407 Z M340.34232,69.4644505 L342.938472,69.8358123 L344.03799,78.6531678 L349.28738,82.4397316 L351.135628,89.4350934 L355.168848,92.8386904 L356.832602,96.1718281 L357.122167,97.9117575 L354.161991,101.471194 L353.455453,106.188649 L354.135516,109.258186 L351.845475,110.596912 L351.37969,124.818079 L352.829994,125.362688 L352.160687,128.048429 L354.696444,133.131443 L359.82008,134.297751 L364.885804,134.328422 L369.44934,139.895533 L375.281995,142.608629 L378.459758,145.979898 L380.71257,152.137209 L385.794012,158.71396 L390.862218,164.219729 L393.535311,166.898011 L393.486499,166.986706 L393.790128,167.154151 L394.110304,167.474948 L394.13926,167.346463 L398.740026,169.881339 L402.340553,175.20723 L401.675382,175.873692 L397.921799,178.749259 L396.642752,182.593019 L392.727013,186.909271 L386.998601,192.011351 L385.813041,194.585186 L378.481269,198.869939 L378.881695,196.333405 L372.025636,195.012087 L366.135067,196.782687 L358.379704,190.852503 L354.721264,191.283548 L350.407581,189.217019 L346.273427,186.015682 L344.813195,181.263411 L345.542898,175.65817 L337.727966,173.759914 L332.193976,171.465429 L329.366172,166.810973 L326.250459,164.730352 L324.257428,161.624342 L320.541902,160.74816 L316.885944,157.66536 L311.359399,152.497794 L313.557607,147.176876 L312.316617,143.861146 L309.524388,142.306898 L311.696121,136.81522 L307.249239,127.904195 L306.628743,123.966765 L304.45701,122.61975 L304.353594,120.029336 L306.421912,119.200403 L312.213201,114.952124 L315.108845,107.698964 L324.106027,102.621752 L325.03677,92.5709452 L323.795779,85.6286351 L322.451373,82.0020552 L321.934293,79.4116411 L323.382116,78.2718588 L325.243602,77.5465428 L327.828999,74.2308127 L329.276821,72.5729476 L331.241723,71.3295488 L333.516872,70.8114659 L336.309101,71.5367819 L337.963755,69.9825334 L340.34232,69.4644505 Z M445.619437,48.8446707 L449.342408,49.2591369 L451.824389,52.367634 L453.375628,55.2688979 L453.789291,56.7195298 L455.237113,59.4135606 L457.82251,60.5533428 L461.131818,61.2786588 L463.717215,60.8641925 L466.406028,62.0039748 L468.681178,62.9365239 L469.508505,65.1124718 L469.922168,68.2209688 L469.611921,70.1896836 L467.543603,72.987331 L466.199197,75.370512 L464.958206,77.2356102 L463.820631,79.1007085 L464.027463,81.4838895 L465.268454,83.3489877 L465.992365,84.7996197 L466.509444,86.871951 L466.716276,88.8406658 L468.474346,90.9129972 L469.922168,93.5034114 L469.922168,95.6793593 L469.508505,97.5444575 L468.681178,99.6167889 L467.957266,101.274654 L467.233355,102.207203 L467.543603,106.351866 L467.957266,108.424197 L466.406028,110.496528 L465.268454,111.94716 L464.234295,113.397792 L463.820631,114.537575 L463.924047,117.438839 L464.544542,119.096704 L464.441127,121.065418 L466.406028,122.101584 L467.233355,125.831781 L466.819692,127.696879 L466.302612,129.147511 L465.682117,130.908992 L464.751374,131.530692 L466.61286,134.017489 L468.37093,137.229603 L471.88707,137.436836 L474.575883,137.02237 L476.954448,136.607904 L479.126181,136.40067 C479.126181,136.40067 481.194499,136.71152 481.504747,136.71152 C481.649529,136.71152 482.672657,137.117697 483.72281,137.550953 L484.172049,137.737186 C484.923522,138.050093 485.625657,138.348875 485.957747,138.490721 L486.083577,138.544525 C486.115983,138.558399 486.138463,138.568038 486.149849,138.572922 L486.158461,138.576618 L490.088265,141.374266 L492.259998,143.757447 L493.087325,146.451478 L493.294157,149.559975 L493.500989,152.772088 L493.500989,155.984202 L493.294157,157.745683 L492.673662,162.408429 L491.536087,163.859061 L490.501928,165.516926 L488.743858,167.278408 L486.055045,168.936273 L484.917471,170.697754 L484.296975,172.04477 L483.262817,174.117101 L483.159401,177.018365 L482.178191,178.328907 L481.050544,178.762439 L478.311264,179.84088 L472.414077,180.474185 L468.032553,183.108532 L464.490766,185.285309 L463.398695,183.676351 L459.765902,179.29793 L456.070232,179.936208 C455.360109,180.053087 454.532415,180.188756 453.687101,180.326543 L452.839616,180.464418 C451.547187,180.674254 450.2914,180.876064 449.428689,181.0104 L449.203417,181.045319 L449.126476,180.857152 L446.923304,181.594902 L446.959706,181.742452 C445.198209,182.596933 441.102693,184.55363 438.075855,185.995226 L437.744111,186.153202 L432.239904,189.879253 L427.918775,191.25611 L425.815709,191.736062 L422.576724,191.816469 L421.437495,189.621455 L416.888023,186.691179 L413.392567,183.688785 L404.658475,174.010998 L404.578224,174.083944 L400.458963,167.99129 L394.706558,164.820623 L396.415816,157.207706 L400.761765,150.676547 L400.05771,148.558624 L402.631524,147.011007 L404.108303,143.84034 L405.417134,142.857226 L411.984456,150.449419 L412.616534,142.216461 L413.457098,139.268777 L413.457098,136.495998 L411.145546,132.28502 L410.558972,127.192888 L410.344694,119.900768 L406.816144,113.451673 L406.195649,104.956772 L402.553755,98.2681156 L404.321753,88.6268012 L406.158419,82.9005352 L407.239736,75.2312513 L407.456495,68.501148 L407.660845,65.023776 L407.832102,63.7397595 L409.527295,62.2112079 L411.388781,61.7967416 L413.250266,60.760576 L415.318584,59.309944 L418.42106,57.3412292 L420.17913,55.0616647 L421.006457,53.0929499 L421.420121,51.7459346 L423.798686,51.2278517 L428.245569,52.1604008 L430.624134,52.6784837 L433.106115,52.8857168 L435.794928,52.4712505 L437.552998,51.5387014 L440.965722,49.8808363 L443.03404,49.4663701 L445.619437,48.8446707 Z M366.29954,42.3169098 L369.505432,43.0422258 L372.504493,44.4928577 L374.57281,47.290505 L375.710385,49.9845358 L376.951376,53.4038825 L377.571871,55.4762139 L378.295782,57.5485452 L379.019693,58.7919441 L380.570931,58.3774778 L381.501674,56.7196127 L385.224646,56.3051464 L387.499795,55.2689808 L388.947618,53.1966494 L391.429599,51.3315512 L392.567173,50.8134683 L394.635491,52.4713334 L395.979897,54.0255819 L397.531136,54.8545145 L399.289205,53.7147322 L400.737028,52.57495 L401.874602,52.2641003 L403.322425,54.9581311 L404.253168,57.3413121 L404.666831,59.6208766 L404.770247,62.2112908 L405.327038,63.7456449 L405.193839,64.7411929 L404.977906,68.389325 L404.772729,74.9544708 L403.762563,82.2424457 L401.93417,87.9421858 L399.953549,98.6859805 L403.758426,105.674711 L404.378921,114.172927 L407.881824,120.572286 L408.080383,127.318968 L408.736453,133.056011 L410.9752,137.134359 L410.9752,138.920708 L410.19503,141.654528 L409.965861,144.318717 L405.777931,139.476922 L402.122801,142.224004 L400.703935,145.270332 L397.072796,147.452911 L398.023395,150.308584 L394.095246,156.211412 L392.678035,162.524562 L387.724001,157.148935 L382.910612,150.920336 L380.613952,144.643659 L376.758608,140.554534 L371.008686,137.879569 L366.058788,131.841624 L360.233578,131.841624 L356.391472,130.966272 L354.791421,127.759961 L355.77594,123.813413 L353.916936,123.115451 L354.278478,112.054176 L356.952399,110.491638 L355.977808,106.100782 L356.513089,102.528912 L359.757865,98.6279552 L359.219275,95.3942894 L357.160058,91.2670343 L353.334498,88.039171 L351.458948,80.9426795 L346.36675,77.2688504 L345.192773,67.8596371 L344.973531,67.8869919 L345.512948,66.7704198 L344.582205,64.4908553 L343.341215,62.5221405 L343.030967,60.967892 L343.96171,57.6521618 L344.47879,54.7508979 L345.202701,52.3677169 L346.857355,48.8447536 L349.029088,46.9796553 L352.338396,46.0471062 L355.854536,44.907324 L362.576568,43.456692 L366.29954,42.3169098 Z" id="Combined-Shape" fill="#FFFFFF" opacity="0.800000012"></path>
                        <g id="Group-11" transform="translate(17.361877, 0.000000)" fill="#00B3A1">
                            <use id="Fill-67" stroke-opacity="0.12" stroke="#000000" mask="url(#mask-2)" stroke-width="2.03045685" fill-opacity="0" style="mix-blend-mode: multiply;" stroke-dasharray="6.091370558375634" xlink:href="#path-1"></use>
                            <path d="M502.243351,505.281292 C421.743367,572.997585 298.472258,555.542735 207.407941,446.743713 C116.342833,337.944691 91.969378,179.002299 172.469362,111.286006 C252.968555,43.5689202 407.857572,92.7217537 498.92268,201.520775 C589.986998,310.319797 582.742545,437.564207 502.243351,505.281292 Z" id="Fill-1" fill-opacity="0.04" style="mix-blend-mode: multiply;"></path>
                            <path d="M471.399291,298.886938 C557.55809,386.846641 546.700422,467.883124 502.242482,505.281054 C474.190346,528.878955 406.137551,540.607811 352.041689,505.314891 C297.945827,470.021971 258.41025,415.741241 238.217221,372.186691 C212.132447,315.924178 163.915137,188.342985 228.336624,157.83444 C271.284283,137.495409 352.305172,184.512908 471.399291,298.886938 Z" id="Fill-4" fill-opacity="0.1" style="mix-blend-mode: multiply;"></path>
                            <path d="M393.276313,452.097637 C361.257378,452.097637 335.301258,426.143152 335.301258,394.126234 C335.301258,362.109317 361.257378,336.154832 393.276313,336.154832 C425.295248,336.154832 451.251368,362.109317 451.251368,394.126234 C451.251368,426.143152 425.295248,452.097637 393.276313,452.097637 Z" id="Fill-67" fill-opacity="0.12" style="mix-blend-mode: multiply;"></path>
                        </g>
                    </g>
                    <g id="Group-6" transform="translate(187.817259, 118.781726)"></g>
                    <g id="Group-7" transform="translate(269.035533, 245.685279)"></g>
                </g>
            </g>
        </g>
    </g>
</svg>