<?xml version="1.0" encoding="UTF-8"?>
<svg width="484px" height="322px" viewBox="0 0 484 322" version="1.1" xmlns="http://www.w3.org/2000/svg" xmlns:xlink="http://www.w3.org/1999/xlink">
    <title>Group 8 Copy</title>
    <g id="Page-1" stroke="none" stroke-width="1" fill="none" fill-rule="evenodd">
        <g id="Artboard-Copy-7" transform="translate(-1038.000000, -1218.000000)">
            <g id="Group-9" transform="translate(0.000000, 800.000000)">
                <g id="Group-8-Copy" transform="translate(1038.000000, 420.000000)">
                    <g id="Group-30" transform="translate(0.000000, 227.000000)">
                        <path d="M2.82339181,66.2842815 C1.12935673,63.4588643 -0.564678363,48.4841531 7.05847953,31.5316499 C14.6816374,14.5791467 19.4814035,6.66797851 23.1518129,4.97272819 C26.8222222,3.27747786 27.6692398,2.71239442 33.3160234,2.71239442 C37.0805458,2.71239442 62.0205068,2.71239442 108.135906,2.71239442 C119.429474,3.27747786 131.664172,6.29125621 144.84,11.7537295 C158.015828,17.2162027 167.144795,23.0553983 172.226901,29.2713161 C185.590955,32.0967333 194.061131,34.2628865 197.637427,35.7697757 C203.001871,38.0301094 214.295439,42.550777 216.271813,49.3317782 C218.248187,56.1127795 218.248187,56.9604047 218.248187,60.6334471 C218.248187,64.3064894 215.989474,72.782741 214.577778,74.1954496 C213.636647,75.1372554 211.56616,75.7965194 208.366316,76.1732417 L21.740117,76.1732417 C10.2583236,71.464213 3.95274854,68.1678929 2.82339181,66.2842815 Z" id="Path-2" fill="#FFFFFF"></path>
                        <polygon id="Fill-3" fill="#3DCCBD" points="51.2793406 27.4871002 19.0608235 27.4871002 28.4184031 11.7263567 51.2793406 11.7263567"></polygon>
                        <polygon id="Fill-5" fill="#3DCCBD" points="218.29201 59.9058358 198.603526 55.4128796 198.603526 47.419299 215.697087 47.419299"></polygon>
                        <polygon id="Fill-7" fill="#3DCCBD" points="51.2794626 27.4874054 97.4453105 27.4874054 97.4453105 11.7266619 51.2794626 11.7266619"></polygon>
                        <polygon id="Fill-9" fill="#3DCCBD" points="13.5315942 55.4025657 1.92182875 58.0201002 3.83127749 46.8395844 14.6177418 46.8395844"></polygon>
                        <polygon id="Fill-10" fill="#3DCCBD" points="155.258613 27.4871002 98.0611397 27.4871002 98.0611397 11.7263567 121.195291 13.1123257"></polygon>
                        <path d="M22.0842292,74.1530597 L211.765489,74.1530597 C212.848587,74.1530597 213.784711,73.379822 213.990231,72.3130348 L216.400369,59.7288516 C216.35524,50.7923728 212.900424,46.2536448 212.29972,45.5316715 C197.868776,34.9614459 172.422063,31.6146146 172.164705,31.5804384 C171.710365,31.5224608 171.292615,31.3027564 170.989519,30.9585527 C150.173417,7.46177112 107.421525,4.04475649 106.990969,4.01241111 L34.8008773,4.0191243 C29.0737508,4.0191243 23.9967272,4.51834165 19.8576571,10.6737282 C-1.35179945,42.2092519 4.60463168,64.4317476 4.6674465,64.6520624 C4.69793914,64.7582529 4.72050368,64.8723771 4.73148103,64.9828397 C5.38951207,66.4658448 13.3102787,70.6988173 22.0842292,74.1530597 L22.0842292,74.1530597 Z M211.765489,77.9380793 L21.7262457,77.9380793 C21.4920622,77.9380793 21.2578788,77.8935281 21.0389417,77.8080875 C12.2680405,74.3825288 1.76271819,69.5105824 1.00162204,65.5839755 C0.449705366,63.5486578 -4.98530172,40.8354887 16.719965,8.55907283 C21.8884665,0.877350535 28.4858528,0.233494412 34.8008773,0.233494412 L107.130625,0.233494412 C109.071786,0.37264057 151.382145,3.76341272 173.346599,27.92419 C177.744247,28.5503477 200.709469,32.2407724 214.708028,42.6077714 C214.794627,42.6718518 214.875127,42.7426455 214.94709,42.8183215 C215.162368,43.0416877 220.182675,48.4079691 220.182675,59.9058358 C220.182675,60.0248424 220.172308,60.1456798 220.149743,60.2622452 L217.704234,73.026464 L217.702404,73.026464 C217.156586,75.8716368 214.659849,77.9380793 211.765489,77.9380793 L211.765489,77.9380793 Z" id="Fill-11" fill="#353D4C"></path>
                        <polygon id="Fill-12" fill="#353D4C" points="49.3870897 27.4867951 53.1700059 27.4867951 53.1700059 9.61688877 49.3870897 9.61688877"></polygon>
                        <polygon id="Fill-13" fill="#353D4C" points="95.5541573 27.3952515 99.3370735 27.3952515 99.3370735 9.61627848 95.5541573 9.61627848"></polygon>
                        <path d="M218.293169,61.7986507 C218.174857,61.7986507 218.055326,61.7870552 217.935185,61.7626436 L198.247921,57.9727417 C197.356316,57.8024707 196.712312,57.0231302 196.712312,56.1150184 L196.712312,47.4196042 C196.712312,46.376008 197.560617,45.5270944 198.604075,45.5270944 L215.689098,45.5270944 C216.732556,45.5270944 217.580251,46.376008 217.580251,47.4196042 C217.580251,48.4638106 216.732556,49.3127243 215.689098,49.3127243 L200.495228,49.3127243 L200.495228,54.5520653 L218.648103,58.0478074 C219.674485,58.2443208 220.345323,59.2372629 220.147731,60.2619401 C219.974533,61.1688313 219.182944,61.7986507 218.293169,61.7986507" id="Fill-14" fill="#353D4C"></path>
                        <path d="M172.404133,31.596428 L172.392546,31.596428 L9.04411525,30.630949 C8.00004746,30.6242358 7.15906061,29.7716604 7.16391831,28.7274539 C7.17064781,27.6862989 8.01590363,26.8459294 9.05509259,26.8459294 L9.06667979,26.8459294 L172.41572,27.8114084 C173.458568,27.8181216 174.300165,28.670697 174.295912,29.7149034 C174.289188,30.7560584 173.442712,31.596428 172.404133,31.596428" id="Fill-15" fill="#353D4C"></path>
                        <path d="M114.327008,42.6138743 L104.022328,42.6138743 C102.97887,42.6138743 102.131175,41.7655709 102.131175,40.7213645 C102.131175,39.677158 102.97887,38.8288547 104.022328,38.8288547 L114.327008,38.8288547 C115.370466,38.8288547 116.218771,39.677158 116.218771,40.7213645 C116.218771,41.7655709 115.370466,42.6138743 114.327008,42.6138743" id="Fill-16" fill="#353D4C"></path>
                        <path d="M91.3848995,42.6138743 L81.0802187,42.6138743 C80.0367608,42.6138743 79.1890656,41.7655709 79.1890656,40.7213645 C79.1890656,39.677158 80.0367608,38.8288547 81.0802187,38.8288547 L91.3848995,38.8288547 C92.4283574,38.8288547 93.2766625,39.677158 93.2766625,40.7213645 C93.2766625,41.7655709 92.4283574,42.6138743 91.3848995,42.6138743" id="Fill-17" fill="#353D4C"></path>
                        <path d="M65.7931026,72.9197853 C65.7931026,82.6923617 57.876605,90.6145383 48.111034,90.6145383 C38.3448532,90.6145383 30.4289654,82.6923617 30.4289654,72.9197853 C30.4289654,63.1465986 38.3448532,55.2250323 48.111034,55.2250323 C57.876605,55.2250323 65.7931026,63.1465986 65.7931026,72.9197853" id="Fill-18" fill="#FFFFFF"></path>
                        <path d="M48.110973,57.1177862 C39.4041063,57.1177862 32.3200576,64.2069167 32.3200576,72.9206397 C32.3200576,81.6337524 39.4041063,88.7210521 48.110973,88.7210521 C56.8178397,88.7210521 63.9024983,81.6337524 63.9024983,72.9206397 C63.9024983,64.2069167 56.8178397,57.1177862 48.110973,57.1177862 M48.110973,92.5060716 C37.3184101,92.5060716 28.5371414,83.7191139 28.5371414,72.9206397 C28.5371414,62.1197244 37.3184101,53.3327666 48.110973,53.3327666 C58.9035359,53.3327666 67.6848046,62.1197244 67.6848046,72.9206397 C67.6848046,83.7191139 58.9035359,92.5060716 48.110973,92.5060716" id="Fill-19" fill="#353D4C"></path>
                        <path d="M48.110973,66.4181811 C44.5274787,66.4181811 41.6136025,69.3341475 41.6136025,72.9202125 C41.6136025,76.5050569 44.5274787,79.4216336 48.110973,79.4216336 C51.6944674,79.4216336 54.6089533,76.5050569 54.6089533,72.9202125 C54.6089533,69.3341475 51.6944674,66.4181811 48.110973,66.4181811 M48.110973,83.2066532 C42.4430022,83.2066532 37.8306864,78.5922493 37.8306864,72.9202125 C37.8306864,67.2481757 42.4430022,62.6325512 48.110973,62.6325512 C53.7789438,62.6325512 58.3912596,67.2481757 58.3912596,72.9202125 C58.3912596,78.5922493 53.7789438,83.2066532 48.110973,83.2066532" id="Fill-20" fill="#353D4C"></path>
                        <path d="M190.622323,72.9197853 C190.622323,82.6923617 182.706435,90.6145383 172.940864,90.6145383 C163.174683,90.6145383 155.258796,82.6923617 155.258796,72.9197853 C155.258796,63.1465986 163.174683,55.2250323 172.940864,55.2250323 C182.706435,55.2250323 190.622323,63.1465986 190.622323,72.9197853" id="Fill-21" fill="#FFFFFF"></path>
                        <path d="M172.940132,57.1177862 C164.233266,57.1177862 157.149217,64.2069167 157.149217,72.9206397 C157.149217,81.6337524 164.233266,88.7210521 172.940132,88.7210521 C181.646999,88.7210521 188.731658,81.6337524 188.731658,72.9206397 C188.731658,64.2069167 181.646999,57.1177862 172.940132,57.1177862 M172.940132,92.5060716 C162.14757,92.5060716 153.366301,83.7191139 153.366301,72.9206397 C153.366301,62.1197244 162.14757,53.3327666 172.940132,53.3327666 C183.732695,53.3327666 192.513964,62.1197244 192.513964,72.9206397 C192.513964,83.7191139 183.732695,92.5060716 172.940132,92.5060716" id="Fill-22" fill="#353D4C"></path>
                        <path d="M172.940132,66.4181811 C169.356638,66.4181811 166.442762,69.3341475 166.442762,72.9202125 C166.442762,76.5050569 169.356638,79.4216336 172.940132,79.4216336 C176.524237,79.4216336 179.438113,76.5050569 179.438113,72.9202125 C179.438113,69.3341475 176.524237,66.4181811 172.940132,66.4181811 M172.940132,83.2066532 C167.272772,83.2066532 162.659846,78.5922493 162.659846,72.9202125 C162.659846,67.2481757 167.272772,62.6325512 172.940132,62.6325512 C178.608103,62.6325512 183.220419,67.2481757 183.220419,72.9202125 C183.220419,78.5922493 178.608103,83.2066532 172.940132,83.2066532" id="Fill-23" fill="#353D4C"></path>
                        <path d="M155.258003,31.1149091 C154.790856,31.1149091 154.321879,30.9409764 153.957187,30.5937213 C136.39221,13.9224248 103.665686,12.5120443 103.336365,12.5004488 L37.3484759,12.5022796 C36.2379341,12.5022796 33.0331583,12.610301 31.5621936,13.1028052 C30.4772657,13.4665381 28.9965434,14.8415218 28.2659399,15.6751782 C25.3648707,18.9982081 23.8829287,21.9147848 22.312558,25.0010222 C21.7984522,26.0134936 21.2831267,27.0271855 20.7184031,28.0555245 C20.214055,28.9679083 19.0614334,29.3023473 18.1490938,28.801299 C17.2355345,28.2965891 16.9019451,27.1461921 17.4038538,26.2301466 C17.9502818,25.2390354 18.446092,24.2619608 18.9425121,23.2848863 C20.5476444,20.1278552 22.2064437,16.8628029 25.4197574,13.1833635 C26.0058259,12.5150957 28.0878629,10.2783823 30.3595641,9.51490928 C32.6684664,8.74106136 36.8447375,8.71664975 37.343597,8.71664975 L37.3484759,8.71664975 L103.407718,8.71664975 C104.876853,8.76974499 137.947944,10.1837873 156.558819,27.8498567 C157.316256,28.5681682 157.348578,29.7667781 156.628952,30.5235379 C156.258771,30.9153442 155.758692,31.1149091 155.258003,31.1149091" id="Fill-24" fill="#353D4C"></path>
                        <path d="M1.91993821,59.9135865 C1.04479961,59.9135865 0.258089654,59.3014654 0.0720845868,58.4116624 C-0.143193409,57.3875955 0.509958811,56.385499 1.53146205,56.1700666 C1.61989069,56.1511476 10.1151385,54.3593357 12.8954569,53.6141714 C13.2747853,53.0032709 13.3101567,50.8996007 13.0210865,48.7330707 L3.83060665,48.7330707 C2.78714872,48.7330707 1.93884364,47.884157 1.93884364,46.8399506 C1.93884364,45.7951338 2.78714872,44.9474408 3.83060665,44.9474408 L14.6182907,44.9474408 C15.5141643,44.9474408 16.2868476,45.5772602 16.4691936,46.4542472 C17.0686788,49.326883 18.0285869,56.1303977 14.0322223,57.2276995 C11.2933739,57.9795769 2.67615553,59.7951902 2.31207348,59.8720867 C2.1803453,59.9007704 2.04861712,59.9135865 1.91993821,59.9135865" id="Fill-25" fill="#353D4C"></path>
                    </g>
                    <g id="Group-36" transform="translate(51.000000, 77.000000)">
                        <g id="Group-2" transform="translate(-0.000011, 77.163082)">
                            <polygon id="Path-4" fill="#FFFFFF" points="3.15634024 19.1499622 10.821738 11.9405647 18.4871357 19.1499622 10.821738 26.3593597"></polygon>
                            <polygon id="Path-4-Copy" fill="#FFFFFF" points="25.4761747 41.4540357 33.1415725 34.2446382 40.8069702 41.4540357 33.1415725 48.6634332"></polygon>
                            <path d="M4.54805192,19.1228408 L10.750402,25.3160222 L16.9479598,19.1228408 L10.750402,12.9260677 L4.54805192,19.1228408 Z M10.7856305,29.8953691 C10.1798295,29.8953691 9.57500254,29.6647044 9.11334716,29.203375 L0.731477567,20.830344 C0.289301319,20.3865335 0.0389944997,19.7879732 0.0389944997,19.1592416 C0.0389944997,18.5334298 0.287353406,17.9319497 0.731477567,17.4881391 L9.11334716,9.11218836 C9.55649737,8.66935108 10.1593764,8.42019428 10.7856305,8.42019428 C11.4128584,8.42019428 12.0128156,8.67227089 12.4569398,9.11218836 L20.8368615,17.4881391 C21.7591983,18.4107979 21.7591983,19.9076852 20.8368615,20.830344 L12.4569398,29.203375 C11.9952844,29.6647044 11.3904574,29.8953691 10.7856305,29.8953691 L10.7856305,29.8953691 Z" id="Fill-26" fill="#353D4C"></path>
                            <polygon id="Path" fill="#353D4C" points="27.88094 41.2781718 32.9221388 46.3158108 37.9604157 41.2781718 32.9221388 36.2424794"></polygon>
                            <path d="M32.9221388,52.0162459 C32.2958848,52.0162459 31.6939797,51.7680623 31.2498555,51.3242518 L22.8679859,42.948301 C22.4238617,42.5054637 22.1755028,41.9030104 22.1755028,41.2781718 C22.1755028,40.6494402 22.4267836,40.0499067 22.8679859,39.6070694 L31.2498555,31.2340384 C32.1731663,30.3104064 33.6701374,30.3104064 34.5944221,31.2340384 L42.9733698,39.6070694 C43.8966806,40.5287549 43.8966806,42.0266155 42.9733698,42.948301 L34.5944221,51.3242518 C34.1502979,51.7651425 33.5493668,52.0162459 32.9221388,52.0162459 L32.9221388,52.0162459 Z" id="Path" fill="#353D4C"></path>
                            <polygon id="Fill-28" fill="#DCE5F4" points="71.6842437 10.9177347 63.3043221 19.291739 54.9234264 10.9177347 63.3043221 2.54275719"></polygon>
                            <path d="M57.6310575,10.8789332 L63.2684684,16.5134517 L68.903701,10.8789332 L63.2684684,5.24876824 L57.6310575,10.8789332 Z M63.3050038,21.6548355 C62.6787498,21.6548355 62.0768447,21.4066519 61.6327205,20.9628414 L53.2508509,12.5868906 C52.8067268,12.1440533 52.5583679,11.5416 52.5583679,10.9157882 C52.5583679,10.2880298 52.8096487,9.68849629 53.2508509,9.24565902 L61.6327205,0.871654764 C62.5560313,-0.0510040037 64.0530024,-0.0510040037 64.9772871,0.871654764 L73.3562349,9.24565902 C74.2795456,10.1673445 74.2795456,11.6652051 73.3562349,12.5868906 L64.9772871,20.9628414 C64.533163,21.4037321 63.9332058,21.6548355 63.3050038,21.6548355 L63.3050038,21.6548355 Z" id="Fill-29" fill="#353D4C"></path>
                        </g>
                        <g id="Group" transform="translate(245.453804, 0.112644)">
                            <polygon id="Stroke-30" stroke="#353D4C" stroke-width="3.98596491" fill="#FFFFFF" stroke-linejoin="round" points="136.854832 64.8850659 109.585676 64.8850659 109.585676 20.5472729 136.854832 32.404929"></polygon>
                            <polygon id="Stroke-28" stroke="#353D4C" stroke-width="3.98596491" fill="#FFFFFF" stroke-linejoin="round" points="10.6864663 64.8850659 10.6864663 51.4198944 22.8149289 40.1753975 35.9113957 50.8813524 50.6035278 38.2953669 71.5711848 51.5918385 71.5711848 64.8850659"></polygon>
                            <polygon id="Fill-7" fill="#3DCCBD" points="72.0291067 64.8845792 99.0401637 64.8845792 99.0401637 0 72.0291067 0"></polygon>
                            <path d="M87.9204873,16.8862109 L87.9204873,12.3880878 C87.9204873,11.1455481 86.9140657,10.1382151 85.6690248,10.1382151 C84.4256071,10.1382151 83.4175623,11.1455481 83.4175623,12.3880878 L83.4175623,16.8862109 C83.4175623,18.1287506 84.4256071,19.1360836 85.6690248,19.1360836 C86.9140657,19.1360836 87.9204873,18.1287506 87.9204873,16.8862109 Z" id="Fill-9" fill="#353D4C"></path>
                            <path d="M85.6690248,32.6537037 C86.9140657,32.6537037 87.9204873,31.6463707 87.9204873,30.4038311 L87.9204873,25.9057079 C87.9204873,24.6631683 86.9140657,23.6558352 85.6690248,23.6558352 C84.4256071,23.6558352 83.4175623,24.6631683 83.4175623,25.9057079 L83.4175623,30.4038311 C83.4175623,31.6463707 84.4256071,32.6537037 85.6690248,32.6537037" id="Fill-10" fill="#353D4C"></path>
                            <path d="M85.6690248,46.1713239 C86.9140657,46.1713239 87.9204873,45.1639908 87.9204873,43.9214512 L87.9204873,39.423328 C87.9204873,38.1807884 86.9140657,37.1734554 85.6690248,37.1734554 C84.4256071,37.1734554 83.4175623,38.1807884 83.4175623,39.423328 L83.4175623,43.9214512 C83.4175623,45.1639908 84.4256071,46.1713239 85.6690248,46.1713239" id="Fill-10-Copy" fill="#353D4C"></path>
                            <path d="M123.220417,45.6714454 C124.463834,45.6714454 125.471879,44.6641124 125.471879,43.4215728 L125.471879,38.9234496 C125.471879,37.68091 124.463834,36.6735769 123.220417,36.6735769 C121.976999,36.6735769 120.968954,37.68091 120.968954,38.9234496 L120.968954,43.4215728 C120.968954,44.6641124 121.976999,45.6714454 123.220417,45.6714454" id="Fill-11" fill="#353D4C"></path>
                            <path d="M120.969441,56.9170778 C120.969441,58.1612395 121.977486,59.1669505 123.220903,59.1669505 C124.462698,59.1669505 125.470743,58.1612395 125.470743,56.9170778 L125.470743,52.4189546 C125.470743,51.176415 124.462698,50.1707041 123.220903,50.1707041 C121.977486,50.1707041 120.969441,51.176415 120.969441,52.4189546 L120.969441,56.9170778 Z" id="Fill-12" fill="#353D4C"></path>
                            <path d="M52.8431405,50.1703797 C51.5997228,50.1703797 50.591678,51.1760906 50.591678,52.4186302 L50.591678,56.9167534 C50.591678,58.1609151 51.5997228,59.166626 52.8431405,59.166626 C54.0865581,59.166626 55.094603,58.1609151 55.094603,56.9167534 L55.094603,52.4186302 C55.094603,51.1760906 54.0865581,50.1703797 52.8431405,50.1703797" id="Fill-13" fill="#353D4C"></path>
                            <line x1="0.515279837" y1="65.109876" x2="147.961463" y2="65.109876" id="Stroke-27" stroke="#353D4C" stroke-width="3.98596491" stroke-linecap="round" stroke-linejoin="round"></line>
                            <polygon id="Stroke-29" stroke="#353D4C" stroke-width="3.98596491" stroke-linejoin="round" points="72.1449187 64.8845792 99.1559758 64.8845792 99.1559758 0 72.1449187 0"></polygon>
                        </g>
                        <g id="Group-4" transform="translate(404.687903, 103.635088)" stroke="#353D4C" stroke-linejoin="round" stroke-width="3.98596491">
                            <line x1="13.2453562" y1="33.2308162" x2="13.2453562" y2="18.0234935" id="Stroke-31" stroke-linecap="round"></line>
                            <polygon id="Stroke-32" fill="#FFFFFF" points="12.9635401 0 0 18.0234935 25.9270802 18.0234935"></polygon>
                        </g>
                        <g id="Group-5" transform="translate(351.706479, 199.948131)" stroke="#353D4C" stroke-linejoin="round" stroke-width="3.98596491">
                            <line x1="13.2453562" y1="33.3434599" x2="13.2453562" y2="18.1361373" id="Stroke-33" stroke-linecap="round"></line>
                            <polygon id="Stroke-34" fill="#FFFFFF" points="13.5271723 0 0 18.0234935 27.0543445 18.0234935"></polygon>
                        </g>
                        <g id="Group-3" transform="translate(220.380181, 119.968879)" stroke="#353D4C" stroke-linejoin="round" stroke-width="3.63041685">
                            <line x1="13.2453562" y1="33.3434599" x2="13.2453562" y2="18.1361373" id="Stroke-33-Copy" stroke-linecap="round"></line>
                            <polygon id="Stroke-34-Copy" fill="#FFFFFF" points="13.5271723 0 0 18.0234935 27.0543445 18.0234935"></polygon>
                        </g>
                    </g>
                    <path d="M382.499673,32.5714286 C376.937511,32.5714286 372.428571,28.0145212 372.428571,22.3931881 C372.428571,16.771855 376.937511,12.2142857 382.499673,12.2142857 C388.061834,12.2142857 392.571429,16.771855 392.571429,22.3931881 C392.571429,28.0145212 388.061834,32.5714286 382.499673,32.5714286 M359,23.7514266 C359,36.8682949 382.5,57 382.5,57 C382.5,57 406,36.8682949 406,23.7514266 C406,10.6338735 395.478694,0 382.5,0 C369.521306,0 359,10.6338735 359,23.7514266 Z" id="Fill-1" stroke="#353D4C" stroke-width="3.4877193" fill="#FFFFFF"></path>
                    <path d="M243,287 C334.924347,279.746726 380.924347,244.457511 381,181.132357 C381.001341,179.438974 380.963515,168.728189 380.886521,149" id="Path-3" stroke="#353D4C" stroke-width="5.97894761" stroke-linecap="round" stroke-dasharray="5.978947843585098,14.94736937138072"></path>
                </g>
            </g>
        </g>
    </g>
</svg>