<?xml version="1.0" encoding="UTF-8"?>
<svg width="200px" height="140px" viewBox="0 0 200 140" version="1.1" xmlns="http://www.w3.org/2000/svg" xmlns:xlink="http://www.w3.org/1999/xlink">
    <title>Group 48</title>
    <defs>
        <polygon id="path-1" points="0 0.0005 10 0.0005 10 18.0005 0 18.0005"></polygon>
    </defs>
    <g id="Group-48" stroke="none" stroke-width="1" fill="none" fill-rule="evenodd">
        <g transform="translate(8.000000, 14.000000)">
            <g id="Group-30" transform="translate(0.000000, 27.000000)">
                <path d="M2.26568674,58.25 C0.781537483,55.75 -0.70261177,42.5 5.97605987,27.5 C12.6547315,12.5 16.8598211,5.5 20.0754778,4 C23.2911345,2.5 24.0332091,2 28.9803733,2 C32.2784827,2 51.1284578,2 85.5302986,2 C95.4246269,2.5 106.143483,5.16666667 117.686866,10 C129.230249,14.8333333 137.228164,20 141.680612,25.5 C153.388901,28 160.809647,29.9166667 163.942851,31.25 C168.642657,33.25 178.536985,37.25 180.268493,43.25 C182,49.25 182,50 182,53.25 C182,55.4166667 180.166667,61.5 176.5,71.5 L18.996224,71.5 C8.83196533,64.3333333 3.25511957,59.9166667 2.26568674,58.25 Z" id="Path-2" fill="#FFFFFF"></path>
                <polygon id="Fill-3" fill="#F2F5FA" points="45 24 17 24 25.132349 10 45 10"></polygon>
                <polygon id="Fill-5" fill="#F2F5FA" points="182 53 165 49.0419355 165 42 179.759416 42"></polygon>
                <polygon id="Fill-7" fill="#F2F5FA" points="45 24 77 24 77 10 45 10"></polygon>
                <polygon id="Fill-9" fill="#F2F5FA" points="12.0589394 48.6588428 2 51 3.65438563 41 13 41"></polygon>
                <polygon id="Fill-10" fill="#F2F5FA" points="127 24 77 24 77 10 97.2230539 11.2311326"></polygon>
                <path d="M173.621947,69.6876944 C174.571333,69.6876944 175.391889,69.011027 175.572037,68.0774716 L180.684634,52.0649367 C180.645076,44.2445415 177.616771,40.2726587 177.090226,39.6408533 C164.440837,30.3907512 142.135619,27.4619082 141.910033,27.4320003 C141.511783,27.3812635 141.145607,27.1889981 140.879928,26.8877824 C122.633655,6.32553171 85.1596486,3.33527065 84.7822464,3.30696491 L30.5043005,3.31283968 C25.4842098,3.31283968 21.0339644,3.7497094 17.4058784,9.13634507 C-1.1851888,36.7333731 4.03589792,56.1804844 4.09095801,56.3732839 C4.11768621,56.4662122 4.13746508,56.5660834 4.14708723,56.6627501 C4.7238818,57.9605416 11.6667992,66.664855 19.3575717,69.6876944 L173.621947,69.6876944 Z M19.0437826,73 C18.83851,73 18.6332374,72.9610128 18.4413289,72.886243 C10.7532293,69.8885049 1.54482962,60.6250196 0.877693731,57.1888097 C0.393913299,55.4076843 -4.37012119,35.5311803 14.6555466,7.28579058 C19.1859766,0.563444441 24.9688901,0 30.5043005,0 L84.9046615,0 C86.6061788,0.121768088 123.693161,3.08906412 142.946018,24.2323835 C146.800759,24.7803399 166.930837,28.0098646 179.201219,37.0821212 C179.277127,37.1381986 179.347689,37.2001508 179.410768,37.2663755 C179.599469,37.4618454 184,42.1579278 184,52.2198172 C184,52.3239609 183.990912,52.4297069 183.971134,52.5317144 L178.827532,68.7018001 C178.347493,71.1916371 176.158988,73 173.621947,73 L19.0437826,73 Z" id="Fill-11" fill="#353D4C"></path>
                <polygon id="Fill-12" fill="#353D4C" points="44 24 47 24 47 8 44 8"></polygon>
                <polygon id="Fill-13" fill="#353D4C" points="75 24 78 24 78 8 75 8"></polygon>
                <path d="M181.989417,53.9690196 L164.374004,50.7081989 C163.576231,50.5616983 163,49.891156 163,49.1098192 L163,41.62831 C163,40.7304028 163.759031,40 164.692677,40 L179.979703,40 C180.91335,40 181.671835,40.7304028 181.671835,41.62831 C181.671835,42.5267422 180.91335,43.257145 179.979703,43.257145 L166.384809,43.257145 L166.384809,47.7650589 L182.627308,50.7727852 C183.545676,50.9418648 184.145916,51.7961893 183.969118,52.6778186 C183.814147,53.4581052 183.105863,54 182.309727,54 C182.203866,54 182.096914,53.9900233 181.989417,53.9690196 Z" id="Fill-14" fill="#353D4C"></path>
                <path d="M142.325905,28 L7.65371658,27.1870504 C6.73541266,27.1813977 5.99572744,26.4635149 5.99998158,25.5842754 C6.00591889,24.7076053 6.74935887,24 7.66337164,24 L7.6735631,24 L142.346288,24.8129496 C143.263519,24.8186023 144.003741,25.5364851 144.000137,26.4157246 C143.994085,27.2923947 143.249573,28 142.336096,28 L142.325905,28 Z" id="Fill-15" fill="#353D4C"></path>
                <path d="M82.6109091,37 C81.7220779,37 81,36.3276362 81,35.5 C81,34.6723638 81.7220779,34 82.6109091,34 L91.3885714,34 C92.2774026,34 93,34.6723638 93,35.5 C93,36.3276362 92.2774026,37 91.3885714,37 L82.6109091,37 Z" id="Fill-16" fill="#353D4C"></path>
                <path d="M62.6109091,37 C61.7220779,37 61,36.3276362 61,35.5 C61,34.6723638 61.7220779,34 62.6109091,34 L71.3885714,34 C72.2774026,34 73,34.6723638 73,35.5 C73,36.3276362 72.2774026,37 71.3885714,37 L62.6109091,37 Z" id="Fill-17" fill="#353D4C"></path>
                <path d="M42.5,84 C33.9390219,84 27,77.0604435 27,68.5 C27,59.9390219 33.9390219,53 42.5,53 C51.0604435,53 58,59.9390219 58,68.5 C58,77.0604435 51.0604435,84 42.5,84 Z" id="Fill-18" fill="#333D4C"></path>
                <path d="M28.2854873,68.0010594 C28.2854873,75.563501 34.4380297,81.7148377 42,81.7148377 C49.5619703,81.7148377 55.7150424,75.563501 55.7150424,68.0010594 C55.7150424,60.4380881 49.5619703,54.2851623 42,54.2851623 C34.4380297,54.2851623 28.2854873,60.4380881 28.2854873,68.0010594 Z M25,68.0010594 C25,58.6265346 32.626589,51 42,51 C51.373411,51 59,58.6265346 59,68.0010594 C59,77.3734654 51.373411,85 42,85 C32.626589,85 25,77.3734654 25,68.0010594 Z" id="Fill-19" fill="#353D4C"></path>
                <path d="M36.3117993,68.0005339 C36.3117993,71.1368652 38.862787,73.6885382 42,73.6885382 C45.137213,73.6885382 47.6887347,71.1368652 47.6887347,68.0005339 C47.6887347,64.8631348 45.137213,62.3119957 42,62.3119957 C38.862787,62.3119957 36.3117993,64.8631348 36.3117993,68.0005339 Z M33,68.0005339 C33,63.0381467 37.0379071,59 42,59 C46.9620929,59 51,63.0381467 51,68.0005339 C51,72.9629212 46.9620929,77 42,77 C37.0379071,77 33,72.9629212 33,68.0005339 Z" id="Fill-20" fill="#353D4C"></path>
                <path d="M37,68.5002581 C37,71.5327827 39.4664696,74 42.4997419,74 C45.5330142,74 48,71.5327827 48,68.5002581 C48,65.4667011 45.5330142,63 42.4997419,63 C39.4664696,63 37,65.4667011 37,68.5002581 Z" id="Path" fill="#FFFFFF"></path>
                <path d="M142.500267,84 C133.939142,84 127,77.0604435 127,68.5 C127,59.9390219 133.939142,53 142.500267,53 C151.060858,53 158,59.9390219 158,68.5 C158,77.0604435 151.060858,84 142.500267,84 Z" id="Fill-21" fill="#353D4C"></path>
                <path d="M129.285487,68.0010594 C129.285487,75.563501 135.43803,81.7148377 143,81.7148377 C150.56197,81.7148377 156.715042,75.563501 156.715042,68.0010594 C156.715042,60.4380881 150.56197,54.2851623 143,54.2851623 C135.43803,54.2851623 129.285487,60.4380881 129.285487,68.0010594 Z M126,68.0010594 C126,58.6265346 133.626589,51 143,51 C152.373411,51 160,58.6265346 160,68.0010594 C160,77.3734654 152.373411,85 143,85 C133.626589,85 126,77.3734654 126,68.0010594 Z" id="Fill-22" fill="#353D4C"></path>
                <path d="M137.311799,68.0005339 C137.311799,71.1368652 139.862787,73.6885382 143,73.6885382 C146.137747,73.6885382 148.688735,71.1368652 148.688735,68.0005339 C148.688735,64.8631348 146.137747,62.3119957 143,62.3119957 C139.862787,62.3119957 137.311799,64.8631348 137.311799,68.0005339 Z M134,68.0005339 C134,63.0381467 138.038441,59 143,59 C147.962093,59 152,63.0381467 152,68.0005339 C152,72.9629212 147.962093,77 143,77 C138.038441,77 134,72.9629212 134,68.0005339 Z" id="Fill-23" fill="#353D4C"></path>
                <path d="M137,68.5002581 C137,71.5327827 139.46647,74 142.499742,74 C145.53353,74 148,71.5327827 148,68.5002581 C148,65.4667011 145.53353,63 142.499742,63 C139.46647,63 137,65.4667011 137,68.5002581 Z" id="Path" fill="#FFFFFF"></path>
                <path d="M126.195811,26.5346176 C110.761318,11.6483747 82.0042471,10.3890085 81.7148704,10.3786545 L32.7307591,10.3802894 C31.7549168,10.3802894 28.9388534,10.4767445 27.6463044,10.9165145 C26.6929692,11.2413013 25.3918461,12.4690608 24.7498586,13.2134547 C22.2006648,16.1806763 20.89847,18.784965 19.5185721,21.5407482 C19.066823,22.4448108 18.6140022,23.3499632 18.1177748,24.2681943 C17.6745999,25.082886 16.6617817,25.3815155 15.8601012,24.9341162 C15.057349,24.4834473 14.7642212,23.4562274 15.2052526,22.638266 C15.6854034,21.7532765 16.1210761,20.8808207 16.5572845,20.0083649 C17.9677277,17.1893681 19.4253285,14.2739162 22.2488943,10.9884472 C22.7638775,10.3917332 24.5933809,8.39451241 26.5895438,7.71278712 C28.6183955,7.02179777 32.28812,7 32.726472,7 L81.7775687,7 C83.06851,7.04741015 112.128355,8.31004605 128.481886,24.0845481 C129.147452,24.7259475 129.175854,25.7962181 128.543513,26.471949 C128.218232,26.8218032 127.778808,27 127.338848,27 C126.928362,27 126.516268,26.8446909 126.195811,26.5346176 Z" id="Fill-24" fill="#353D4C"></path>
                <path d="M0.0362239213,51.695388 C-0.153829686,50.8058557 0.422791881,49.9354076 1.32460432,49.7482771 C1.40267167,49.7318436 8.90252081,48.1754272 11.3570658,47.5281572 C11.6919478,46.9975125 11.7231748,45.1702076 11.4679753,43.2883008 L3.35435531,43.2883008 C2.43316063,43.2883008 1.68425251,42.5509114 1.68425251,41.6438853 C1.68425251,40.7363292 2.43316063,40 3.35435531,40 L12.8780331,40 C13.6689361,40 14.3510831,40.5470783 14.5120634,41.3088529 C15.0413062,43.8041023 15.8887407,49.7138197 12.360635,50.6669657 C9.94270089,51.3200669 2.33517265,52.8971578 2.01375055,52.9639522 C1.89745712,52.9888676 1.7811637,53 1.66756225,53 C0.894964724,53 0.200434545,52.4682951 0.0362239213,51.695388 Z" id="Fill-25" fill="#353D4C"></path>
            </g>
            <g id="clock" transform="translate(142.000000, 0.000000)" fill="#00CCB7" stroke="#353D4C" stroke-width="3">
                <circle id="Oval" cx="18" cy="18" r="19.5"></circle>
            </g>
        </g>
        <g id="Group-3" transform="translate(166.500000, 18.500000)">
            <mask id="mask-2" fill="white">
                <use xlink:href="#path-1"></use>
            </mask>
            <g id="Clip-2"></g>
            <path d="M8.499,18.0005 C8.281,18.0005 8.06,17.9525 7.85,17.8515 L0.85,14.4835 C0.33,14.2335 0,13.7085 0,13.1315 L0,1.5005 C0,0.6715 0.671,0.0005 1.5,0.0005 C2.329,0.0005 3,0.6715 3,1.5005 L3,12.1885 L9.15,15.1485 C9.897,15.5075 10.211,16.4035 9.852,17.1505 C9.593,17.6875 9.057,18.0005 8.499,18.0005" id="Fill-1" fill="#333D4C" mask="url(#mask-2)"></path>
        </g>
    </g>
</svg>