<?xml version="1.0" encoding="UTF-8"?>
<svg width="200px" height="140px" viewBox="0 0 200 140" version="1.1" xmlns="http://www.w3.org/2000/svg" xmlns:xlink="http://www.w3.org/1999/xlink">
    <title>Group 50</title>
    <g id="Group-50" stroke="none" stroke-width="1" fill="none" fill-rule="evenodd">
        <g transform="translate(31.000000, 1.000000)">
            <g id="Group-42" transform="translate(0.000000, 23.000000)">
                <g id="Group" transform="translate(48.000000, 5.000000)">
                    <path d="M66.1783065,71.5 C70.6649699,71.5 75.014914,73.0442894 78.4972119,75.8733793 C81.9710785,78.6956195 84.4898325,82.5207202 85.7099591,86.827004 L85.7099591,86.827004 L92.9840519,112.5 L22.983544,112.5 L6.44556662,82.4707214 C5.38955098,80.5532325 4.53565637,78.5311949 3.89764057,76.4371871 C3.78759506,76.0760108 3.73166162,75.7005247 3.73166162,75.3229558 C3.73166162,74.2672757 4.15956052,73.3115368 4.85137944,72.6197178 C5.54319837,71.9278989 6.49893732,71.5 7.55461741,71.5 L7.55461741,71.5 Z" id="Path" stroke="#353D4C" stroke-width="3" fill="#F2F5FA" stroke-linejoin="round"></path>
                    <g transform="translate(0.869885, 0.000000)">
                        <g transform="translate(0.000000, 27.000000)" fill="#FFFFFF" id="Path" stroke="#353D4C" stroke-linejoin="round" stroke-width="3">
                            <path d="M0.130114943,9.02677755 C0.130114943,13.9972441 4.13132127,18.0266651 9.06698386,18.0266651 L20.1301149,18.0266651 L20.1301149,0.0266650675 L9.06698386,0.0266650675 C4.13132127,0.0268900366 0.130114943,4.05631099 0.130114943,9.02677755 Z"></path>
                            <path d="M75.1301149,9.02677755 C75.1301149,13.9972441 71.1289086,18.0266651 66.193246,18.0266651 L55.1301149,18.0266651 L55.1301149,0.0266650675 L66.193246,0.0266650675 C71.1289086,0.0268900366 75.1301149,4.05631099 75.1301149,9.02677755 Z"></path>
                        </g>
                        <path d="M49.5,47.5 L49.5,71 C49.5,74.1756373 48.2128187,77.0506373 46.131728,79.131728 C44.0506373,81.2128187 41.1756373,82.5 38,82.5 C34.8243627,82.5 31.9493627,81.2128187 29.868272,79.131728 C27.7871813,77.0506373 26.5,74.1756373 26.5,71 L26.5,71 L26.5,47.5 L49.5,47.5 Z" id="Path" stroke="#353D4C" stroke-width="3" fill="#FFFFFF" stroke-linejoin="round"></path>
                        <path d="M38,0 C23.0881802,0 11,5.38731586 11,23.1347051 L11,37.3868414 C11,55.1342307 23.0884112,61.7739737 38,61.7739737 C52.9118198,61.7739737 65,55.1342307 65,37.3868414 L65,23.1347051 C65,5.38731586 52.9118198,0 38,0 Z" id="Path" stroke="#353D4C" stroke-width="3" fill="#FFFFFF" stroke-linejoin="round"></path>
                        <path d="M30,48 C35.1728041,50.6558488 41.3085422,50.6558488 46.4813462,48 L46.4813462,48 L46.4813462,48" id="Path-7" stroke="#353D4C" stroke-width="3" stroke-linejoin="round"></path>
                        <g id="Group-40" transform="translate(23.000000, 32.000000)" fill="#333D4C">
                            <circle id="Oval" cx="2.5" cy="2.5" r="2.5"></circle>
                            <circle id="Oval-Copy" cx="27.6301149" cy="2.5" r="2.5"></circle>
                        </g>
                    </g>
                </g>
                <path d="M87,-1.5 C95.2099852,-1.5 102.642344,1.80671944 108.022494,7.15158439 C113.406227,12.5000098 116.735294,19.8890102 116.735294,28.0501188 L116.735294,28.0501188 L116.735294,31.5 L86.6494214,31.5 L77.6729218,24.0174258 L68.6964223,31.5 L57.2647059,31.5 L57.2647059,28.0501188 C57.2647059,19.888979 60.5937372,12.4999549 65.9774749,7.15152542 C71.3575873,1.80669738 78.789919,-1.5 87,-1.5 Z" id="Path" stroke="#353D4C" stroke-width="3" fill="#333D4C" stroke-linejoin="round"></path>
                <path d="M40,74.5 C51.3357211,74.5 61.6099059,79.0449339 69.0997682,86.4119245 C76.6037954,93.7928478 81.3127512,104.006576 81.4945431,115.320347 L81.4945431,115.320347 L81.5122013,117.5 L66.4057371,117.5 C66.8343424,109.342601 63.7434489,101.909819 58.5318052,96.625791 C53.6488712,91.6750385 46.9036672,88.6111111 39.4520548,88.6111111 C32.0004424,88.6111111 25.2552383,91.6750385 20.3723044,96.625791 C15.1606607,101.909819 12.0697672,109.342601 12.4983725,117.5 L12.4983725,117.5 L-1.47353867,117.5 C-1.89829847,105.44721 2.81869138,94.4914458 10.6550686,86.6550686 C18.1650914,79.1450457 28.5400914,74.5 40,74.5 Z" id="Combined-Shape" stroke="#353D4C" stroke-width="3" fill="#333D4C" stroke-linejoin="round"></path>
                <path d="M39.4520548,99.5 C43.9540028,99.5 48.0307165,101.348504 50.9813103,104.340078 C54.2445042,107.648594 56.1295893,112.35593 55.6810388,117.5 L55.6810388,117.5 L23.2230708,117.5 C22.7745203,112.35593 24.6596054,107.648594 27.9227993,104.340078 C30.8733931,101.348504 34.9501068,99.5 39.4520548,99.5 Z" id="Path" stroke="#353D4C" stroke-width="3" fill="#333D4C" stroke-linejoin="round"></path>
            </g>
            <g id="Group-43" transform="translate(8.000000, 31.000000)" stroke="#353D4C" stroke-width="3">
                <path d="M29.5,-1.5 L29.5,25.4333333 L14,33.7 L-1.5,25.4333333 L-1.5,-1.5 L29.5,-1.5 Z" id="Path-5" fill="#3DCCBD" stroke-linejoin="round"></path>
                <path d="M13.243795,6.70126968 C13.8144943,6.50773995 14.4590228,6.53192467 15.0421099,6.81969536 C15.5064865,7.04887896 15.8823616,7.42475402 16.1115452,7.88913071 L16.1115452,7.88913071 L17.3472393,10.3929204 L20.1103352,10.7944217 C20.7538101,10.8879241 21.2984679,11.2333943 21.6588814,11.7163576 C22.0192949,12.1993209 22.1954641,12.8197774 22.1019617,13.4632522 C22.0274954,13.9757223 21.7861688,14.4493525 21.4153419,14.8108194 L21.4153419,14.8108194 L19.4159469,16.7597478 L19.8879401,19.511679 C19.9978587,20.1525537 19.8376055,20.7773102 19.489654,21.2693277 C19.1417025,21.7613452 18.6060526,22.1206237 17.9651778,22.2305423 C17.4547785,22.3180826 16.9297553,22.2349271 16.4713881,21.9939492 L16.4713881,21.9939492 L14,20.6946636 L11.5286119,21.9939492 C10.9530705,22.2965292 10.3093708,22.3371798 9.73391139,22.1583 C9.15845202,21.9794202 8.651233,21.58101 8.34865299,21.0054687 C8.10767509,20.5471015 8.0245196,20.0220783 8.11205994,19.511679 L8.11205994,19.511679 L8.58405308,16.7597478 L6.58465807,14.8108194 C6.11903531,14.3569494 5.88146019,13.7573163 5.87375826,13.154745 C5.86605634,12.5521737 6.08822761,11.9466642 6.54209762,11.4810415 C6.90356447,11.1102146 7.37719467,10.868888 7.88966478,10.7944217 L7.88966478,10.7944217 L10.6527607,10.3929204 L11.8884548,7.88913071 C12.1762255,7.3060436 12.6730957,6.89479942 13.243795,6.70126968 Z" id="Star" fill="#FFFFFF"></path>
            </g>
        </g>
    </g>
</svg>