<?xml version="1.0" encoding="utf-8"?>
<!-- Generator: Adobe Illustrator 24.2.3, SVG Export Plug-In . SVG Version: 6.00 Build 0)  -->
<svg version="1.1" id="Layer_1" xmlns="http://www.w3.org/2000/svg" xmlns:xlink="http://www.w3.org/1999/xlink" x="0px" y="0px"
	 viewBox="0 0 24 24" style="enable-background:new 0 0 24 24;" xml:space="preserve">
<g>
	<defs>
		<rect id="SVGID_1_" x="-956.4" y="-2484.6" width="1920" height="4986"/>
	</defs>
	<clipPath id="SVGID_2_">
		<use xlink:href="#SVGID_1_"  style="overflow:visible;"/>
	</clipPath>
</g>
<path d="M12,24C5.4,24,0,18.6,0,12C0,5.4,5.4,0,12,0c6.6,0,12,5.4,12,12C24,18.6,18.6,24,12,24z M12,3c-5,0-9,4-9,9c0,5,4,9,9,9
	c5,0,9-4,9-9C21,7,17,3,12,3z"/>
<path d="M15.5,15.4l-4.2-2.1c-0.5-0.3-0.8-0.8-0.8-1.3V5.7h3v5.4l3.4,1.7L15.5,15.4z"/>
</svg>
