<?xml version="1.0" encoding="utf-8"?>
<!-- Generator: Adobe Illustrator 24.2.3, SVG Export Plug-In . SVG Version: 6.00 Build 0)  -->
<svg version="1.1" id="Capa_1" xmlns="http://www.w3.org/2000/svg" xmlns:xlink="http://www.w3.org/1999/xlink" x="0px" y="0px"
	 viewBox="0 0 500 500" style="enable-background:new 0 0 500 500;" xml:space="preserve">
<style type="text/css">
	.st0{fill:#FFFFFF;}
</style>
<g>
	<path class="st0" d="M250,198.8c103.2,0,228.1-30,228.1-30l11.9,63.1c0,0-134.1,44.8-169.9,80.6c-35.8,35.8-30,176.3-30,176.3h-80
		c0,0,5.8-140.5-30-176.3c-35.8-35.8-169.9-80.6-169.9-80.6l11.9-63.1C21.9,168.8,146.8,198.8,250,198.8z"/>
</g>
<g>
	<path class="st0" d="M250,0C112.2,0,0,112.2,0,250c0,137.9,112.2,250,250,250s250-112.2,250-250S387.8,0,250,0z M250,453.8
		c-110.3,0-200-89.7-200-200s89.7-200,200-200c110.3,0,200,89.7,200,200S360.3,453.8,250,453.8z"/>
</g>
</svg>
