<?xml version="1.0" encoding="UTF-8"?>
<svg width="56px" height="14px" viewBox="0 0 56 14" version="1.1" xmlns="http://www.w3.org/2000/svg" xmlns:xlink="http://www.w3.org/1999/xlink">
    <title>logo</title>
    <g id="logo" stroke="none" stroke-width="1" fill="none" fill-rule="evenodd">
        <g transform="translate(0.000000, 1.000000)">
            <path d="M25.3884018,2.76261245 C25.9884664,2.76261245 26.475539,3.26542625 26.475539,3.88735766 L26.475539,3.88735766 L26.475539,10.9404951 C26.475539,11.5624265 25.9884664,12.0663857 25.3884018,12.0663857 C24.8870681,12.0663857 24.4669132,11.7124689 24.341854,11.231417 C23.7516625,11.5715894 23.0726131,11.7651555 22.3518774,11.7651555 C20.0777751,11.7651555 18.2282158,9.84667465 18.2282158,7.48952025 C18.2282158,5.13007512 20.0777751,3.21159425 22.3518774,3.21159425 C23.061643,3.21159425 23.7319163,3.3982882 24.3166228,3.72929774 C24.3901224,3.1829602 24.8420907,2.76261245 25.3884018,2.76261245 Z M22.3518774,5.46223001 C21.2735163,5.46223001 20.3991991,6.37164721 20.3991991,7.48952025 C20.3991991,8.60510256 21.2735163,9.51451976 22.3518774,9.51451976 C23.4280444,9.51451976 24.3045556,8.60510256 24.3045556,7.48952025 C24.3045556,6.37164721 23.4280444,5.46223001 22.3518774,5.46223001 Z" id="Combined-Shape" fill="#FFFFFF"></path>
            <path d="M13.128215,3.45212021 C12.4217404,3.45212021 11.7569522,3.6376688 11.1744397,3.96295153 L11.1744397,1.12589056 C11.1744397,0.503959154 10.6884642,5.32907052e-15 10.0894966,5.32907052e-15 C9.49052896,5.32907052e-15 9.00455341,0.503959154 9.00455341,1.12589056 L9.00455341,10.8797909 C9.00455341,11.5017223 9.49052896,12.0056815 10.0894966,12.0056815 C10.6884642,12.0056815 11.1744397,11.5017223 11.1744397,10.8797909 L11.1744397,7.73004621 C11.1744397,6.61217317 12.0498539,5.70275597 13.128215,5.70275597 C14.2043821,5.70275597 15.0808933,6.61217317 15.0808933,7.73004621 L15.0808933,10.8797909 C15.0808933,11.5017223 15.5657718,12.0056815 16.1658365,12.0056815 C16.7648041,12.0056815 17.2507796,11.5017223 17.2507796,10.8797909 L17.2507796,7.73004621 C17.2507796,5.37060108 15.4012203,3.45212021 13.128215,3.45212021 L13.128215,3.45212021 Z" id="Path" fill="#FFFFFF"></path>
            <path d="M7.28444131,8.27638374 C6.77433153,7.95568246 6.10625228,8.125196 5.79579837,8.65549847 C5.45791921,9.23161541 4.87211573,9.59584044 4.22487967,9.63249201 C3.1498096,9.6897601 2.22832098,8.82959345 2.17237345,7.7151565 C2.11642593,6.59842883 2.94466868,5.64319716 4.02083576,5.58478372 C4.69001202,5.5492775 5.32188994,5.8665427 5.7135226,6.43349675 C6.06237187,6.9374559 6.7392272,7.05542816 7.22739677,6.69234849 C7.71446933,6.33155955 7.82746139,5.62830746 7.47861213,5.12205758 C6.6536604,3.92744532 5.31859891,3.2608448 3.90674669,3.33758403 C1.63703244,3.4612831 -0.11379595,5.47826508 0.00577816924,7.8319834 C0.124255278,10.1868471 2.06925449,12.0033908 4.33896873,11.8808371 C5.70364951,11.8052432 6.9421741,11.0355601 7.65084274,9.82262206 C7.96239366,9.29117422 7.79784211,8.59823039 7.28444131,8.27638374 L7.28444131,8.27638374 Z" id="Path" fill="#FFFFFF"></path>
            <path d="M54.160186,2.76261245 C54.7602506,2.76261245 55.2473232,3.26542625 55.2473232,3.88735766 L55.2473232,3.88735766 L55.2473232,10.9404951 C55.2473232,11.5624265 54.7602506,12.0663857 54.160186,12.0663857 C53.6588523,12.0663857 53.2386974,11.7124689 53.1136382,11.231417 C52.5234467,11.5715894 51.8443974,11.7651555 51.1236616,11.7651555 C48.8495593,11.7651555 47,9.84667465 47,7.48952025 C47,5.13007512 48.8495593,3.21159425 51.1236616,3.21159425 C51.8334272,3.21159425 52.5037005,3.3982882 53.088407,3.72929774 C53.1619067,3.1829602 53.6138749,2.76261245 54.160186,2.76261245 Z M51.1236616,5.46223001 C50.0453005,5.46223001 49.1709833,6.37164721 49.1709833,7.48952025 C49.1709833,8.60510256 50.0453005,9.51451976 51.1236616,9.51451976 C52.1998287,9.51451976 53.0763399,8.60510256 53.0763399,7.48952025 C53.0763399,6.37164721 52.1998287,5.46223001 51.1236616,5.46223001 Z" id="Combined-Shape" stroke="#FFFFFF" stroke-width="0.3"></path>
            <path d="M41.4236616,3.45212021 C40.717187,3.45212021 40.0523988,3.6376688 39.4698863,3.96295153 L39.4698863,1.12589056 C39.4698863,0.503959154 38.9839108,5.32907052e-15 38.3849432,5.32907052e-15 C37.7859755,5.32907052e-15 37.3,0.503959154 37.3,1.12589056 L37.3,10.8797909 C37.3,11.5017223 37.7859755,12.0056815 38.3849432,12.0056815 C38.9839108,12.0056815 39.4698863,11.5017223 39.4698863,10.8797909 L39.4698863,7.73004621 C39.4698863,6.61217317 40.3453005,5.70275597 41.4236616,5.70275597 C42.4998287,5.70275597 43.3763399,6.61217317 43.3763399,7.73004621 L43.3763399,10.8797909 C43.3763399,11.5017223 43.8612184,12.0056815 44.461283,12.0056815 C45.0602506,12.0056815 45.5462262,11.5017223 45.5462262,10.8797909 L45.5462262,7.73004621 C45.5462262,5.37060108 43.6966669,3.45212021 41.4236616,3.45212021 L41.4236616,3.45212021 Z" id="Path-Copy-3" stroke="#FFFFFF" stroke-width="0.3"></path>
            <path d="M33.7957984,8.65549847 C33.4579192,9.23161541 32.8721157,9.59584044 32.2248797,9.63249201 C31.1498096,9.6897601 30.228321,8.82959345 30.1723735,7.7151565 C30.1164259,6.59842883 30.9446687,5.64319716 32.0208358,5.58478372 C32.690012,5.5492775 33.3218899,5.8665427 33.7135226,6.43349675 C34.0623719,6.9374559 34.7392272,7.05542816 35.2273968,6.69234849 C35.7144693,6.33155955 35.8274614,5.62830746 35.4786121,5.12205758 C34.6536604,3.92744532 33.3185989,3.2608448 31.9067467,3.33758403 C29.6370324,3.4612831 27.886204,5.47826508 28.0057782,7.8319834 C28.1242553,10.1868471 30.0692545,12.0033908 32.3389687,11.8808371 C33.7036495,11.8052432 34.9421741,11.0355601 35.6508427,9.82262206 C35.9623937,9.29117422 35.7978421,8.59823039 35.2844413,8.27638374 C34.7743315,7.95568246 34.1062523,8.125196 33.7957984,8.65549847 Z" id="Path-Copy-4" stroke="#FFFFFF" stroke-width="0.3"></path>
        </g>
    </g>
</svg>