<?xml version="1.0" encoding="UTF-8"?>
<svg width="24px" height="24px" viewBox="0 0 24 24" version="1.1" xmlns="http://www.w3.org/2000/svg" xmlns:xlink="http://www.w3.org/1999/xlink">
    <title>apple</title>
    <g id="apple" stroke="none" stroke-width="1" fill="none" fill-rule="evenodd">
        <g>
            <rect id="Rectangle" fill="#D8D8D8" opacity="0" x="0" y="0" width="24" height="24"></rect>
            <path d="M16.2311398,5.79 L16.5311398,5.8 C18.2832048,5.8639542 19.9041982,6.74476797 20.9111398,8.18 C20.8111398,8.25 18.2911398,9.71 18.3211398,12.75 C18.3611398,16.38 21.5111398,17.59 21.5411398,17.61 C21.5211398,17.69 21.0411398,19.33 19.8811398,21.02 C18.8811398,22.48 17.8411398,23.94 16.2111398,23.97 C14.6111398,24 14.0811398,23.01 12.2511398,23.01 C10.4111398,23.01 9.83113976,23.94 8.31113976,24 C6.74113976,24.06 5.53113976,22.42 4.53113976,20.96 C2.46113976,17.98 0.891139759,12.54 3.00113976,8.86 C4.01277535,7.0534575 5.90132303,5.91348908 7.97113976,5.86 C9.52113976,5.83 10.9811398,6.9 11.9311398,6.9 C12.8811398,6.9 14.6611398,5.61 16.5311398,5.8 L16.2311398,5.79 Z M16.5511398,0 C16.6548663,1.39143474 16.2057117,2.76764441 15.3011398,3.83 C14.443229,4.91922266 13.1275418,5.54750029 11.7411398,5.53 C11.645143,4.17244809 12.1033404,2.8339344 13.0111398,1.82 C13.915068,0.783072503 15.1818562,0.131785873 16.5511398,0 Z" id="Shape" fill="#FFFFFF" fill-rule="nonzero"></path>
        </g>
    </g>
</svg>