<?xml version="1.0" encoding="UTF-8"?>
<svg width="24px" height="24px" viewBox="0 0 24 24" version="1.1" xmlns="http://www.w3.org/2000/svg" xmlns:xlink="http://www.w3.org/1999/xlink">
    <title>GOOGLE</title>
    <g id="GOOGLE" stroke="none" stroke-width="1" fill="none" fill-rule="evenodd">
        <g>
            <rect id="Rectangle" fill="#D8D8D8" opacity="0" x="0" y="0" width="24" height="24"></rect>
            <path d="M2.93866667,1 L14.0447092,11.8918014 L2.93866667,22.787234 C2.37673759,22.4976454 2,21.9702128 2,21.2848227 L2,21.2848227 L2,2.50241135 C2,1.81702128 2.37673759,1.28958865 2.93866667,1 L2.93866667,1 Z M14.9833759,12.8195745 L17.5851348,15.3777589 L5.43239716,22.2380142 L14.9833759,12.8195745 Z M18.7925106,9.15114894 L21.341617,10.6018156 C22.1722553,11.2100426 22.1722553,12.5808227 21.3933617,13.1890496 L21.3933617,13.1890496 L18.7925106,14.6415319 L15.9483688,11.8963404 L18.7925106,9.15114894 Z M5.43239716,1.55375887 L17.5851348,8.41401418 L14.9833759,10.9721986 L5.43239716,1.55375887 Z" id="Combined-Shape" fill="#FFFFFF" fill-rule="nonzero"></path>
        </g>
    </g>
</svg>