<?xml version="1.0" encoding="UTF-8"?>
<svg width="40px" height="40px" viewBox="0 0 40 40" version="1.1" xmlns="http://www.w3.org/2000/svg" xmlns:xlink="http://www.w3.org/1999/xlink">
    <title>Group 12 Copy</title>
    <g id="Group-12-Copy" stroke="none" stroke-width="1" fill="none" fill-rule="evenodd">
        <g id="Group-12" fill="#FFFFFF" fill-rule="nonzero">
            <path d="M20,0 C31.0456667,0 40,8.95433333 40,20 C40,31.0456667 31.0456667,40 20,40 C8.95433333,40 0,31.0456667 0,20 C0,8.95433333 8.95433333,0 20,0 Z M25.1915,7.5 L14.8083333,7.5 C10.5523333,7.5 7.67333333,10.254 7.5075,14.4253333 L7.5,14.8085 L7.5,25.1411667 C7.5,27.3085 8.20566667,29.1733333 9.617,30.5343333 C10.8806667,31.751 12.5353333,32.403 14.42,32.49 L14.8588333,32.5 L25.1411667,32.5 C27.3085,32.5 29.1228333,31.7943333 30.4335,30.5343333 C31.7035,29.311 32.403,27.605 32.4906667,25.621 L32.5,25.1915 L32.5,14.8085 C32.5,12.6915 31.7943333,10.877 30.4838333,9.5665 C29.2608333,8.2965 27.5546667,7.597 25.6115,7.50933333 L25.1915,7.5 Z M25.2418333,9.81833333 C26.7538333,9.81833333 28.014,10.2721667 28.9211667,11.1795 C29.7066667,12.0111667 30.1956667,13.1391667 30.2716667,14.4473333 L30.2821667,14.8085 L30.2821667,25.1915 C30.2821667,26.754 29.7276667,28.0141667 28.8205,28.871 C27.9888333,29.6565 26.8605,30.103 25.5138333,30.172 L25.141,30.1815 L14.8588333,30.1815 C13.3468333,30.1815 12.0866667,29.7278333 11.1795,28.871 C10.3478333,28.0393333 9.89733333,26.9111667 9.828,25.5255 L9.8185,25.1411667 L9.8185,14.8083333 C9.8185,13.2961667 10.2721667,12.0361667 11.1795,11.1288333 C11.9648333,10.3433333 13.1315,9.89683333 14.4851667,9.82783333 L14.8588333,9.81833333 L25.2418333,9.81833333 Z M20,13.498 C16.4716667,13.498 13.5483026,16.371 13.5483026,19.9496667 C13.5430438,21.6623711 14.2210723,23.3064529 15.432143,24.5175236 C16.6432138,25.7285944 18.2872955,26.4066229 20,26.4013641 C23.5786667,26.4013641 26.4516667,23.4778333 26.4516667,19.9496667 C26.4516667,16.4213333 23.5283333,13.498 20,13.498 Z M20,15.8165 C22.2681667,15.8165 24.133,17.6815 24.133,19.9496667 C24.133,22.2176667 22.268,24.0826667 20,24.0826667 C17.7318333,24.0826667 15.867,22.2176667 15.867,19.9496667 C15.867,17.6813333 17.732,15.8165 20,15.8165 Z M26.7036667,11.885 C25.8964105,11.885 25.242,12.5394105 25.242,13.3466667 C25.242,14.1539229 25.8964105,14.8083333 26.7036667,14.8083333 C27.5109229,14.8083333 28.1653333,14.1539229 28.1653333,13.3466667 C28.1653333,12.5394105 27.5109229,11.885 26.7036667,11.885 Z" id="Combined-Shape"></path>
        </g>
    </g>
</svg>