<?xml version="1.0" encoding="UTF-8"?>
<svg width="40px" height="40px" viewBox="0 0 40 40" version="1.1" xmlns="http://www.w3.org/2000/svg" xmlns:xlink="http://www.w3.org/1999/xlink">
    <title>Group 12</title>
    <g id="Group-12" stroke="none" stroke-width="1" fill="none" fill-rule="evenodd">
        <g id="Group-18" fill="#FFFFFF" fill-rule="nonzero">
            <path d="M20,0 C31.045,0 40,8.955 40,20 C40,31.045 31.045,40 20,40 C8.955,40 0,31.045 0,20 C0,8.955 8.955,0 20,0 Z M25,10 L22.1425,10 C19.5175,10 17.8575,12.1333333 17.8575,15.1853333 L17.8575,17.408 L15,17.408 L15,21.1106667 L17.8575,21.1106667 L17.8575,30 L21.42875,30 L21.42875,21.1106667 L24.28625,21.1106667 L25,17.408 L21.42875,17.408 L21.42875,15.9253333 C21.42875,14.4453333 22.14375,13.704 23.57125,13.704 L25,13.704 L25,10 Z" id="Combined-Shape"></path>
        </g>
    </g>
</svg>