<svg xmlns="http://www.w3.org/2000/svg" width="32" height="32" viewBox="0 0 32 32">
    <g fill="none" fill-rule="evenodd">
        <path stroke="#28B2A4" stroke-width="2" d="M19.688 2.505c-.193-.182-.44-.274-.688-.274-.247 0-.495.092-.688.274L4.332 15.75c-.2.19-.313.452-.313.726 0 .276.112.526.293.707.181.181.431.293.707.293H9V31c0 .276.112.526.293.707.18.181.43.293.707.293h18c.276 0 .526-.112.707-.293.181-.18.293-.43.293-.707V17.476h3.98c.275 0 .538-.113.727-.312.19-.2.28-.459.273-.715-.006-.256-.111-.509-.311-.699L19.688 2.505z" transform="translate(-3 -1)"/>
        <path stroke="#28B2A4" stroke-width="2" d="M19 19c-1.38 0-2.63.56-3.536 1.464C14.56 21.37 14 22.62 14 24v8h10v-8c0-1.38-.56-2.63-1.464-3.536C21.63 19.56 20.38 19 19 19z" transform="translate(-3 -1)"/>
    </g>
</svg>
