<svg xmlns="http://www.w3.org/2000/svg" width="34" height="32" viewBox="0 0 34 32">
    <g fill="none" fill-rule="evenodd" stroke="#28B2A4" transform="translate(.5 1)">
        <rect width="4" height="11" x="1" y="19" stroke-width="2" rx="2"/>
        <path stroke-linecap="round" stroke-width="2" d="M5.085 21.974c2.313-1.95 4.292-2.925 5.939-2.925H20c.985 0 2 .952 2 1.951 0 1-1 2-2 2h-4.974"/>
        <path stroke-width="2" d="M5.085 29.014H17.04c3.761-.048 6.555-.869 8.384-2.463 2.742-2.392 3.849-3.774 4.267-4.786.419-1.012 1.178-4.035 1.317-4.843.14-.807-.332-1.663-1.214-1.876-.883-.213-1.74.404-2.058 1.158-.212.502-.983 1.732-2.312 3.687l-3.86 2.118"/>
        <circle cx="16" cy="8" r="7" stroke-width="2"/>
        <g stroke-linecap="round" stroke-width="1.5">
            <path stroke-linejoin="round" d="M0.5 0L2.297 4 4 0 5.762 4 7.5 0" transform="translate(12 6.5)"/>
            <path d="M0 2L1 2M7 2L8 2" transform="translate(12 6.5)"/>
        </g>
    </g>
</svg>
