<svg xmlns="http://www.w3.org/2000/svg" width="32" height="32" viewBox="0 0 32 32">
    <g fill="none" fill-rule="evenodd">
        <circle cx="8" cy="24" r="7" stroke="#28B2A4" stroke-width="2"/>
        <circle cx="24" cy="8" r="7" stroke="#28B2A4" stroke-width="2"/>
        <g stroke="#28B2A4" stroke-linecap="round" stroke-width="1.5">
            <path stroke-linejoin="round" d="M0.5 0L2.297 4 4 0 5.762 4 7.5 0" transform="translate(4 22.5)"/>
            <path d="M0 2L1 2M7 2L8 2" transform="translate(4 22.5)"/>
        </g>
        <path fill="#28B2A4" d="M23.49 5.393v1.191c-.413-.189-.5-.378-.5-.63 0-.289.17-.477.5-.56m1.74 4.168c0 .306-.17.498-.52.584V8.908c.43.192.52.396.52.654m-.52-2.6V5.51c.219.074.456.184.707.327.132.076.278.116.424.116.467 0 .833-.384.833-.875 0-.328-.156-.605-.44-.781-.445-.265-.928-.441-1.47-.538v-.053c0-.396-.291-.706-.663-.706-.372 0-.664.31-.664.706v.027c-1.35.187-2.215 1.09-2.215 2.323 0 1.49.903 2.08 2.268 2.487v1.54c-.385-.108-.753-.29-1.172-.578-.151-.107-.32-.165-.476-.165-.48 0-.842.381-.842.885 0 .331.143.6.413.779.627.408 1.325.679 2.024.79v.5c0 .396.292.706.664.706.372 0 .663-.31.663-.706v-.488C26.146 11.606 27 10.72 27 9.473c0-1.276-.686-2.03-2.29-2.51"/>
        <g stroke="#28B2A4" stroke-linecap="round" stroke-linejoin="round" stroke-width="2">
            <path d="M9.548 23.835c.42.07.847.117 1.28.142 4.663.266 8.856-2.165 11.059-5.94.46-.792.835-1.64 1.108-2.538l-3.837 1.645 2.218 1.756M13.214.125C12.869.075 12.52.04 12.166.02 7.504-.247 3.31 2.185 1.109 5.96.647 6.75.273 7.6-.001 8.497l3.838-1.645-2.218-1.757" transform="translate(5 4)"/>
        </g>
    </g>
</svg>
