<svg xmlns="http://www.w3.org/2000/svg" width="16" height="16" viewBox="0 0 16 16">
    <g fill="none" fill-rule="evenodd">
        <circle cx="8" cy="8" r="8" fill="#FFF"/>
        <path fill="#28B2A4" fill-rule="nonzero" d="M8.685 12.024c.208 0 .388-.052.54-.156.152-.104.228-.272.228-.504V4.008c0-.232-.076-.4-.228-.504-.152-.104-.344-.156-.576-.156-.144 0-.292.024-.444.072-.152.048-.332.128-.54.24L5.637 4.788c-.184.104-.292.248-.324.432-.032.184-.004.356.084.516.096.176.232.298.408.366.176.068.364.046.564-.066l1.548-.888v6.216c0 .232.076.4.228.504.152.104.332.156.54.156z"/>
    </g>
</svg>
