<?xml version="1.0" encoding="UTF-8"?>
<svg width="50px" height="50px" viewBox="0 0 50 50" version="1.1" xmlns="http://www.w3.org/2000/svg" xmlns:xlink="http://www.w3.org/1999/xlink">
    <title>Combined Shape</title>
    <g id="Page-1" stroke="none" stroke-width="1" fill="none" fill-rule="evenodd">
        <g id="Group" transform="translate(-163.000000, -206.000000)" fill="#A3B1CC" fill-rule="nonzero">
            <path d="M193.833333,206 C194.293542,206 194.666667,206.373125 194.666667,206.833333 L194.666667,206.833333 L194.666667,226 L206.333333,226 C206.793542,226 207.166667,226.373125 207.166667,226.833333 L207.166667,226.833333 L207.166667,254.333333 L212.166667,254.333333 C212.626875,254.333333 213,254.706458 213,255.166667 C213,255.626875 212.626875,256 212.166667,256 L212.166667,256 L163.833333,256 C163.373125,256 163,255.626875 163,255.166667 C163,254.706458 163.373125,254.333333 163.833333,254.333333 L163.833333,254.333333 L171.333333,254.333333 L171.333333,206.833333 C171.333333,206.373125 171.706458,206 172.166667,206 L172.166667,206 Z M179.666667,246 L178,246 C177.539792,246 177.166667,246.373125 177.166667,246.833333 L177.166667,246.833333 L177.166667,254.333333 L180.5,254.333333 L180.5,246.833333 C180.5,246.373125 180.126875,246 179.666667,246 L179.666667,246 Z M193,207.666667 L173,207.666667 L173,254.333333 L175.5,254.333333 L175.5,246.833333 C175.5,245.452604 176.619271,244.333333 178,244.333333 L178,244.333333 L179.666667,244.333333 C181.047396,244.333333 182.166667,245.452604 182.166667,246.833333 L182.166667,246.833333 L182.166667,254.333333 L183.833333,254.333333 L183.833333,226.833333 C183.833333,226.373125 184.206458,226 184.666667,226 L184.666667,226 L193,226 L193,207.666667 Z M205.5,227.666667 L185.5,227.666667 L185.5,254.333333 L205.5,254.333333 L205.5,227.666667 Z M202.166667,246 C202.626875,246 203,246.373125 203,246.833333 L203,246.833333 L203,251.833333 C203,252.293542 202.626875,252.666667 202.166667,252.666667 L202.166667,252.666667 L197.166667,252.666667 C196.706458,252.666667 196.333333,252.293542 196.333333,251.833333 L196.333333,251.833333 L196.333333,246.833333 C196.333333,246.373125 196.706458,246 197.166667,246 L197.166667,246 Z M193.833333,246 C194.293542,246 194.666667,246.373125 194.666667,246.833333 L194.666667,246.833333 L194.666667,251.833333 C194.666667,252.293542 194.293542,252.666667 193.833333,252.666667 L193.833333,252.666667 L188.833333,252.666667 C188.373125,252.666667 188,252.293542 188,251.833333 L188,251.833333 L188,246.833333 C188,246.373125 188.373125,246 188.833333,246 L188.833333,246 Z M201.333333,247.666667 L198,247.666667 L198,251 L201.333333,251 L201.333333,247.666667 Z M193,247.666667 L189.666667,247.666667 L189.666667,251 L193,251 L193,247.666667 Z M202.166667,237.666667 C202.626875,237.666667 203,238.039792 203,238.5 L203,238.5 L203,243.5 C203,243.960208 202.626875,244.333333 202.166667,244.333333 L202.166667,244.333333 L197.166667,244.333333 C196.706458,244.333333 196.333333,243.960208 196.333333,243.5 L196.333333,243.5 L196.333333,238.5 C196.333333,238.039792 196.706458,237.666667 197.166667,237.666667 L197.166667,237.666667 Z M193.833333,237.666667 C194.293542,237.666667 194.666667,238.039792 194.666667,238.5 L194.666667,238.5 L194.666667,243.5 C194.666667,243.960208 194.293542,244.333333 193.833333,244.333333 L193.833333,244.333333 L188.833333,244.333333 C188.373125,244.333333 188,243.960208 188,243.5 L188,243.5 L188,238.5 C188,238.039792 188.373125,237.666667 188.833333,237.666667 L188.833333,237.666667 Z M201.333333,239.333333 L198,239.333333 L198,242.666667 L201.333333,242.666667 L201.333333,239.333333 Z M193,239.333333 L189.666667,239.333333 L189.666667,242.666667 L193,242.666667 L193,239.333333 Z M181.333333,234.333333 C181.793542,234.333333 182.166667,234.706458 182.166667,235.166667 L182.166667,235.166667 L182.166667,240.166667 C182.166667,240.626875 181.793542,241 181.333333,241 L181.333333,241 L176.333333,241 C175.873125,241 175.5,240.626875 175.5,240.166667 L175.5,240.166667 L175.5,235.166667 C175.5,234.706458 175.873125,234.333333 176.333333,234.333333 L176.333333,234.333333 Z M180.5,236 L177.166667,236 L177.166667,239.333333 L180.5,239.333333 L180.5,236 Z M202.166667,229.333333 C202.626875,229.333333 203,229.706458 203,230.166667 L203,230.166667 L203,235.166667 C203,235.626875 202.626875,236 202.166667,236 L202.166667,236 L197.166667,236 C196.706458,236 196.333333,235.626875 196.333333,235.166667 L196.333333,235.166667 L196.333333,230.166667 C196.333333,229.706458 196.706458,229.333333 197.166667,229.333333 L197.166667,229.333333 Z M193.833333,229.333333 C194.293542,229.333333 194.666667,229.706458 194.666667,230.166667 L194.666667,230.166667 L194.666667,235.166667 C194.666667,235.626875 194.293542,236 193.833333,236 L193.833333,236 L188.833333,236 C188.373125,236 188,235.626875 188,235.166667 L188,235.166667 L188,230.166667 C188,229.706458 188.373125,229.333333 188.833333,229.333333 L188.833333,229.333333 Z M201.333333,231 L198,231 L198,234.333333 L201.333333,234.333333 L201.333333,231 Z M193,231 L189.666667,231 L189.666667,234.333333 L193,234.333333 L193,231 Z M181.333333,226 C181.793542,226 182.166667,226.373125 182.166667,226.833333 L182.166667,226.833333 L182.166667,231.833333 C182.166667,232.293542 181.793542,232.666667 181.333333,232.666667 L181.333333,232.666667 L176.333333,232.666667 C175.873125,232.666667 175.5,232.293542 175.5,231.833333 L175.5,231.833333 L175.5,226.833333 C175.5,226.373125 175.873125,226 176.333333,226 L176.333333,226 Z M180.5,227.666667 L177.166667,227.666667 L177.166667,231 L180.5,231 L180.5,227.666667 Z M189.666667,217.666667 C190.126875,217.666667 190.5,218.039792 190.5,218.5 L190.5,218.5 L190.5,223.5 C190.5,223.960208 190.126875,224.333333 189.666667,224.333333 L189.666667,224.333333 L184.666667,224.333333 C184.206458,224.333333 183.833333,223.960208 183.833333,223.5 L183.833333,223.5 L183.833333,218.5 C183.833333,218.039792 184.206458,217.666667 184.666667,217.666667 L184.666667,217.666667 Z M181.333333,217.666667 C181.793542,217.666667 182.166667,218.039792 182.166667,218.5 L182.166667,218.5 L182.166667,223.5 C182.166667,223.960208 181.793542,224.333333 181.333333,224.333333 L181.333333,224.333333 L176.333333,224.333333 C175.873125,224.333333 175.5,223.960208 175.5,223.5 L175.5,223.5 L175.5,218.5 C175.5,218.039792 175.873125,217.666667 176.333333,217.666667 L176.333333,217.666667 Z M188.833333,219.333333 L185.5,219.333333 L185.5,222.666667 L188.833333,222.666667 L188.833333,219.333333 Z M180.5,219.333333 L177.166667,219.333333 L177.166667,222.666667 L180.5,222.666667 L180.5,219.333333 Z M189.666667,209.333333 C190.126875,209.333333 190.5,209.706458 190.5,210.166667 L190.5,210.166667 L190.5,215.166667 C190.5,215.626875 190.126875,216 189.666667,216 L189.666667,216 L184.666667,216 C184.206458,216 183.833333,215.626875 183.833333,215.166667 L183.833333,215.166667 L183.833333,210.166667 C183.833333,209.706458 184.206458,209.333333 184.666667,209.333333 L184.666667,209.333333 Z M181.333333,209.333333 C181.793542,209.333333 182.166667,209.706458 182.166667,210.166667 L182.166667,210.166667 L182.166667,215.166667 C182.166667,215.626875 181.793542,216 181.333333,216 L181.333333,216 L176.333333,216 C175.873125,216 175.5,215.626875 175.5,215.166667 L175.5,215.166667 L175.5,210.166667 C175.5,209.706458 175.873125,209.333333 176.333333,209.333333 L176.333333,209.333333 Z M188.833333,211 L185.5,211 L185.5,214.333333 L188.833333,214.333333 L188.833333,211 Z M180.5,211 L177.166667,211 L177.166667,214.333333 L180.5,214.333333 L180.5,211 Z" id="Combined-Shape"></path>
        </g>
    </g>
</svg>