<svg xmlns="http://www.w3.org/2000/svg" width="52" height="52" viewBox="0 0 52 52">
    <defs>
        <filter id="prefix__a">
            <feColorMatrix in="SourceGraphic" values="0 0 0 0 0.011765 0 0 0 0 1.000000 0 0 0 0 0.901961 0 0 0 1.000000 0"/>
        </filter>
    </defs>
    <g fill="none" fill-rule="evenodd" filter="url(#prefix__a)" transform="translate(-154 -50)">
        <path fill="#03FFE6" fill-rule="nonzero" d="M174.583 50.135c.598 0 1.084.483 1.084 1.079s-.486 1.08-1.084 1.08h-15.166c-1.792 0-3.25 1.452-3.25 3.236v41.007c0 1.785 1.458 3.237 3.25 3.237h32.5c1.791 0 3.25-1.452 3.25-3.237v-12.95c0-.595.485-1.079 1.083-1.079s1.083.484 1.083 1.08v12.949c0 2.976-2.43 5.396-5.416 5.396h-32.5c-2.986 0-5.417-2.42-5.417-5.396V55.53c0-2.974 2.431-5.395 5.417-5.395h15.166zM189 88v2h-27v-2h27zm0-8v2h-27v-2h27zm1.846-29.964c2.893.002 5.614 1.124 7.66 3.164 2.045 2.04 3.17 4.75 3.167 7.633 0 2.518-.862 4.906-2.445 6.827l6.453 6.438c.423.42.423 1.105 0 1.526-.21.209-.487.315-.764.315-.278 0-.555-.106-.767-.315l-6.455-6.439c-1.93 1.573-4.326 2.43-6.853 2.43h-.007c-5.973-.001-10.83-4.847-10.829-10.795.003-5.948 4.863-10.784 10.834-10.784h.006zM174 72v2h-12v-2h12zm16.844-19.81h-.004c-2.312 0-4.487.897-6.123 2.525-1.638 1.63-2.542 3.798-2.544 6.103-.002 4.761 3.885 8.635 8.665 8.637h.004c2.312 0 4.487-.897 6.123-2.525 1.638-1.63 2.54-3.796 2.542-6.103 0-2.307-.9-4.474-2.535-6.106-1.636-1.631-3.812-2.531-6.128-2.531zM174 64v2h-12v-2h12z"/>
    </g>
</svg>
