<svg xmlns="http://www.w3.org/2000/svg" width="16" height="16" viewBox="0 0 16 16">
    <g fill="none" fill-rule="evenodd">
        <circle cx="8" cy="8" r="8" fill="#FFF"/>
        <path fill="#28B2A4" fill-rule="nonzero" d="M9.564 12.024c.2 0 .376-.052.528-.156.152-.104.228-.268.228-.492v-1.188h.732c.184 0 .316-.062.396-.186.08-.124.12-.266.12-.426 0-.168-.04-.314-.12-.438-.08-.124-.212-.186-.396-.186h-.732V6.984c0-.224-.076-.388-.228-.492-.152-.104-.328-.156-.528-.156s-.376.052-.528.156c-.152.104-.228.268-.228.492v1.968H6.324l3.132-4.524c.136-.2.178-.384.126-.552-.052-.168-.158-.304-.318-.408-.16-.096-.328-.134-.504-.114-.176.02-.324.118-.444.294l-3.444 4.98c-.088.128-.156.234-.204.318-.048.084-.084.156-.108.216-.024.06-.04.112-.048.156s-.012.086-.012.126c0 .256.074.444.222.564.148.12.39.18.726.18h3.36v1.188c0 .224.076.388.228.492.152.104.328.156.528.156z"/>
    </g>
</svg>
