<?xml version="1.0" encoding="UTF-8"?>
<svg width="32px" height="32px" viewBox="0 0 32 32" version="1.1" xmlns="http://www.w3.org/2000/svg" xmlns:xlink="http://www.w3.org/1999/xlink">
    <title>icon8</title>
    <g id="icon8" stroke="none" stroke-width="1" fill="none" fill-rule="evenodd">
        <polyline id="Path-7" stroke="#28B2A4" stroke-width="2" stroke-linejoin="round" points="15 18.0742187 15 10 29 10 29 15"></polyline>
        <polyline id="Path-8" stroke="#28B2A4" stroke-width="2" stroke-linejoin="round" points="3 15.9934082 3 6 11 6 11 18"></polyline>
        <polyline id="Path-9" stroke="#28B2A4" stroke-width="2" stroke-linejoin="round" points="4 6 4 2 7.79871417 2 10 6"></polyline>
        <path d="M30.999724,29.4985609 C30.4244226,29.5200845 29.8579143,29.2916528 29.3730008,28.8427438 C28.0619886,27.7208925 26.4330025,27.7208925 25.1219903,28.8427438 C24.1223573,29.7167922 22.8704399,29.7167922 21.8710655,28.8427438 C20.5603119,27.7205181 18.9310672,27.7205181 17.620249,28.8427438 C16.6211332,29.7167922 15.3697331,29.7167922 14.3706173,28.8427438 C13.7334409,28.270682 12.9949499,27.9782407 12.2453383,28.0012617 C11.4959853,27.9786151 10.7582702,28.2710563 10.1213525,28.8427438 C9.63747344,29.2920272 9.07148239,29.5204589 8.49689221,29.4985609 C7.92230202,29.5200845 7.35656959,29.2920272 6.87269056,28.8434925 C6.23577283,28.2710563 5.49779912,27.9786151 4.7484461,28.0012617 C3.99909309,27.9786151 3.261378,28.2710563 2.62465423,28.8427438 C2.1407752,29.2920272 1.5748488,29.5204589 1,29.4985609" id="Fill-1" stroke="#28B2A4" stroke-width="2" stroke-linecap="round"></path>
        <path d="M30.999724,24.4985609 C30.4244226,24.5200845 29.8579143,24.2916528 29.3730008,23.8427438 C28.0619886,22.7208925 26.4330025,22.7208925 25.1219903,23.8427438 C24.1223573,24.7167922 22.8704399,24.7167922 21.8710655,23.8427438 C20.5603119,22.7205181 18.9310672,22.7205181 17.620249,23.8427438 C16.6211332,24.7167922 15.3697331,24.7167922 14.3706173,23.8427438 C13.7334409,23.270682 12.9949499,22.9782407 12.2453383,23.0012617 C11.4959853,22.9786151 10.7582702,23.2710563 10.1213525,23.8427438 C9.63747344,24.2920272 9.07148239,24.5204589 8.49689221,24.4985609 C7.92230202,24.5200845 7.35656959,24.2920272 6.87269056,23.8434925 C6.23577283,23.2710563 5.49779912,22.9786151 4.7484461,23.0012617 C3.99909309,22.9786151 3.261378,23.2710563 2.62465423,23.8427438 C2.1407752,24.2920272 1.5748488,24.5204589 1,24.4985609" id="Fill-1-Copy" stroke="#28B2A4" stroke-width="2" stroke-linecap="round"></path>
        <polyline id="Path-6-Copy" stroke="#28B2A4" stroke-width="2" stroke-linejoin="round" points="26.0435791 23.2558594 31 15 21 15 18.8154297 18 9.81542969 18 8 15 4 15 1 15 1 24.5"></polyline>
        <line x1="22" y1="10" x2="22" y2="15" id="Path-11" stroke="#28B2A4" stroke-width="2"></line>
        <line x1="15" y1="15" x2="29" y2="15" id="Path-10" stroke="#28B2A4" stroke-width="2"></line>
        <line x1="8" y1="10" x2="11" y2="10" id="Path-10-Copy" stroke="#28B2A4" stroke-width="2" stroke-linecap="round"></line>
    </g>
</svg>