<svg xmlns="http://www.w3.org/2000/svg" width="32" height="32" viewBox="0 0 32 32">
    <path fill="none" fill-rule="evenodd" stroke="#28B2A4" stroke-width="2" d="M27.546 1c-.927.01-1.81.408-2.451 1.077l-5.05 5.263L8.448 3.503c-.297-.099-.602-.146-.905-.146-.752 0-1.49.295-2.038.844L2.84 6.867l11.1 6.835-4.568 4.759-2.461-.404c-.12-.02-.24-.03-.36-.03-.583 0-1.15.23-1.568.65L2 21.66l6.177 2.163L10.34 30l2.983-2.983c.505-.505.736-1.223.62-1.928l-.404-2.461 4.76-4.567 6.834 11.1 2.666-2.667c.77-.77 1.04-1.909.698-2.943L24.66 11.956l5.29-5.076c.818-.786 1.194-1.906 1-3.066-.08-.473-.264-.926-.538-1.32C29.746 1.537 28.708 1 27.586 1h-.04z"/>
</svg>
