<?xml version="1.0" encoding="UTF-8"?>
<svg width="34px" height="50px" viewBox="0 0 34 50" version="1.1" xmlns="http://www.w3.org/2000/svg" xmlns:xlink="http://www.w3.org/1999/xlink">
    <title>Combined Shape</title>
    <g id="Page-1" stroke="none" stroke-width="1" fill="none" fill-rule="evenodd">
        <g id="Group" transform="translate(-291.000000, -206.000000)" fill="#A3B1CC">
            <path d="M291.971429,256 C291.437143,256 291,255.55 291,255 C291,254.4495 291.437143,254 291.971429,254 L295.011,254 L295.011903,245.746 C295.011903,242.2985 296.943103,238.2945 299.60336,236.225 L305.650503,231.2075 L299.57956,226.171 C296.943103,224.1205 295.011903,220.1165 295.011903,216.669 L295.011,208 L291.971429,208 C291.437143,208 291,207.55 291,207 C291,206.4495 291.437143,206 291.971429,206 L324.028571,206 C324.562857,206 325,206.4495 325,207 C325,207.55 324.562857,208 324.028571,208 L320.987,208 L320.987903,216.669 C320.987903,220.1165 319.057189,224.121 316.39596,226.1895 L310.349303,231.207 L316.420246,236.2435 C319.057189,238.2945 320.987903,242.2985 320.987903,245.7455 L320.987,254 L324.028571,254 C324.562857,254 325,254.4495 325,255 C325,255.55 324.562857,256 324.028571,256 L291.971429,256 Z M307.999903,231.773 C307.947446,231.8525 307.882846,231.9245 307.808531,231.9865 L300.798703,237.802 C298.59696,239.5145 296.95476,242.9215 296.95476,245.746 L296.95476,254 L319.045046,253.9995 L319.045046,245.7455 C319.045046,242.9215 317.403331,239.5145 315.224903,237.8205 L308.19176,231.986 C308.11696,231.924 308.053331,231.852 307.999903,231.773 Z M307.992909,244 C311.353566,244 317.22148,252 317.22148,252 L298.764337,252 C298.764337,252 304.632251,244 307.992909,244 Z M319.045046,208 L296.95476,208 L296.95476,216.669 C296.95476,219.4935 298.59696,222.9005 300.774903,224.594 L307.808531,230.4285 C307.882846,230.4905 307.94696,230.5625 307.999903,230.6415 C308.052846,230.562 308.11696,230.49 308.19176,230.428 L315.201103,224.613 C317.403331,222.9005 319.045046,219.4935 319.045046,216.669 L319.045046,208 Z M317.22148,217.063477 C317.22148,219.579477 315.837194,221.785 313.991966,223.295 L313.991966,223.295 L308.959966,227.3995 C308.387309,227.8665 307.598023,227.8665 307.025851,227.4 L307.025851,227.4 L301.994337,223.295 C300.149109,221.785 298.764337,219.579477 298.764337,217.063477 L298.764337,217.063477 Z" id="Combined-Shape"></path>
        </g>
    </g>
</svg>