<?xml version="1.0" encoding="UTF-8"?>
<svg width="50px" height="50px" viewBox="0 0 50 50" version="1.1" xmlns="http://www.w3.org/2000/svg" xmlns:xlink="http://www.w3.org/1999/xlink">
    <title>Combined Shape</title>
    <g id="Page-1" stroke="none" stroke-width="1" fill="none" fill-rule="evenodd">
        <g id="Group" transform="translate(-44.000000, -206.000000)" fill="#A3B1CC">
            <path d="M69,206 C82.7841667,206 94,217.215417 94,231 C94,244.784167 82.7841667,256 69,256 C55.2158333,256 44,244.784167 44,231 C44,217.215417 55.2158333,206 69,206 Z M61.7825,237.25 L46.9575,237.25 C49.6845833,246.8575 58.5304167,253.916667 69,253.916667 C79.47,253.916667 88.3158333,246.8575 91.0429167,237.25 L91.0429167,237.25 L76.2179167,237.25 C74.4825,239.870833 71.8233333,241.416667 69,241.416667 C66.1775,241.416667 63.5179167,239.870833 61.7825,237.25 L61.7825,237.25 Z M69,208.083333 C56.36375,208.083333 46.0833333,218.363333 46.0833333,231 C46.085,232.3975 46.2145833,233.7925 46.47,235.166667 L46.47,235.166667 L62.3604167,235.166667 C62.7304167,235.166667 63.0725,235.3625 63.2595833,235.68125 C64.5991667,237.967917 66.745,239.333333 69,239.333333 C71.2554167,239.333333 73.40125,237.967917 74.7408333,235.68125 C74.9279167,235.3625 75.27,235.166667 75.6395833,235.166667 L75.6395833,235.166667 L91.5304167,235.166667 C91.7858333,233.7925 91.9154167,232.3975 91.9166667,231 C91.9166667,218.363333 81.6366667,208.083333 69,208.083333 Z M59.9551667,220.8885 C60.3589167,220.4985 60.9985,220.4985 61.4026667,220.8885 L61.4026667,220.8885 L67.6043333,227.090583 C68.051,226.92475 68.5226667,226.837667 68.9993333,226.8335 C71.3005833,226.8335 73.166,228.698917 73.166,231.000167 C73.166,233.301417 71.3005833,235.166888 68.9993333,235.166888 C66.7101667,235.1785 64.8451667,233.331833 64.8335,231.043083 C64.8285,230.031417 65.1935,229.052667 65.85975,228.291833 L65.85975,228.291833 L59.9293333,222.361417 C59.52975,221.947667 59.5414167,221.288083 59.9551667,220.8885 Z M89.8335,229.958333 C90.4089167,229.958333 90.8751667,230.424583 90.8751667,231 C90.8751667,231.575417 90.4089167,232.041667 89.8335,232.041667 L89.8335,232.041667 L85.6668333,232.041667 C85.0914167,232.041667 84.6251667,231.575417 84.6251667,231 C84.6251667,230.424583 85.0914167,229.958333 85.6668333,229.958333 L85.6668333,229.958333 Z M52.3335,229.958333 C52.9089167,229.958333 53.3751667,230.424583 53.3751667,231 C53.3751667,231.575417 52.9089167,232.041667 52.3335,232.041667 L52.3335,232.041667 L48.1668333,232.041667 C47.5914167,232.041667 47.1251667,231.575417 47.1251667,231 C47.1251667,230.424583 47.5914167,229.958333 48.1668333,229.958333 L48.1668333,229.958333 Z M86.1674167,219.890167 C86.6674167,219.605583 87.30325,219.780583 87.5878333,220.280583 C87.8724167,220.780583 87.6974167,221.416833 87.197,221.701 L87.197,221.701 L84.12325,223.471833 C83.9649167,223.563083 83.7849167,223.611417 83.6024167,223.611417 C83.2299167,223.611417 82.8861667,223.413083 82.7003333,223.090583 C82.4124167,222.59225 82.58325,221.955583 83.0815833,221.667667 L83.0815833,221.667667 L86.1553333,219.896833 L86.1553333,219.896833 Z M50.4207083,220.26575 C50.7115417,219.7695 51.3494583,219.602833 51.846125,219.893667 L51.846125,219.893667 L54.919875,221.6645 C54.9240417,221.667 54.9277917,221.669083 54.9319583,221.671583 C55.4282083,221.962417 55.5944583,222.60075 55.3040417,223.097 C55.0127917,223.59325 54.3744583,223.759917 53.8782083,223.468667 L53.8782083,223.468667 L50.8044583,221.697833 L50.8044583,221.697833 L50.792375,221.691167 C50.296125,221.400333 50.129875,220.762 50.4207083,220.26575 Z M58.2758333,212.432292 C58.7720833,212.141458 59.4104167,212.308125 59.70125,212.804375 L59.70125,212.804375 L61.4720833,215.878125 C61.4741667,215.881875 61.4766667,215.886042 61.4791667,215.890208 C61.7633333,216.390208 61.5883333,217.026042 61.0883333,217.310625 C60.5883333,217.594792 59.9525,217.419792 59.6679167,216.919792 L59.6679167,216.919792 L57.8970833,213.846042 C57.6154167,213.350625 57.7841667,212.720625 58.2758333,212.432292 Z M78.2989167,212.805125 C78.5876667,212.313458 79.2176667,212.144708 79.7126667,212.426375 C80.2126667,212.710958 80.3876667,213.346792 80.1030833,213.846792 L80.1030833,213.846792 L78.33225,216.920958 C78.04475,217.418875 77.4080833,217.589708 76.9093333,217.302208 C76.4114167,217.014292 76.2405833,216.377208 76.5280833,215.879292 L76.5280833,215.879292 Z M69.0001667,209.125 C69.5755833,209.125 70.0418333,209.59125 70.0418333,210.166667 L70.0418333,210.166667 L70.0418333,214.333333 C70.0418333,214.90875 69.5755833,215.375 69.0001667,215.375 C68.42475,215.375 67.9585,214.90875 67.9585,214.333333 L67.9585,214.333333 L67.9585,210.166667 C67.9585,209.59125 68.42475,209.125 69.0001667,209.125 Z" id="Combined-Shape"></path>
        </g>
    </g>
</svg>