<svg xmlns="http://www.w3.org/2000/svg" width="16" height="16" viewBox="0 0 16 16">
    <g fill="none" fill-rule="evenodd">
        <circle cx="8" cy="8" r="8" fill="#ADB8CC"/>
        <path fill="#FFF" fill-rule="nonzero" d="M7.896 12.084c.513 0 .965-.068 1.356-.204.393-.136.72-.318.984-.546.264-.228.464-.492.6-.792.136-.3.204-.618.204-.954v-.12c0-.312-.05-.582-.15-.81-.1-.228-.234-.42-.402-.576-.168-.156-.36-.278-.575-.366-.216-.088-.437-.148-.66-.18.223-.072.424-.174.6-.306.175-.132.325-.288.45-.468.123-.18.217-.376.281-.588.065-.212.097-.426.097-.642v-.06c0-.288-.056-.564-.168-.828-.113-.264-.287-.496-.522-.696-.236-.2-.534-.36-.894-.48s-.784-.18-1.272-.18c-.505 0-.945.082-1.32.246-.377.164-.692.386-.949.666-.112.136-.173.288-.186.456-.011.168.042.324.162.468.112.144.256.226.433.246.176.02.34-.038.492-.174.208-.184.413-.324.617-.42.205-.096.45-.144.739-.144.48 0 .827.09 1.044.27.216.18.324.422.324.726v.036c0 .416-.126.726-.378.93-.253.204-.647.306-1.183.306h-.503c-.192 0-.332.064-.42.192-.088.128-.133.284-.133.468 0 .184.045.34.133.468.088.128.228.192.42.192h.636c.615 0 1.06.098 1.332.294.271.196.407.498.407.906v.096c0 .168-.03.326-.09.474-.06.148-.155.276-.287.384-.133.108-.306.192-.523.252-.216.06-.484.09-.804.09-.296 0-.564-.036-.804-.108-.24-.072-.5-.2-.78-.384-.183-.112-.356-.148-.515-.108-.16.04-.296.152-.409.336-.104.168-.142.346-.114.534.028.188.135.342.318.462.353.224.724.386 1.117.486.391.1.824.15 1.295.15z"/>
    </g>
</svg>
