<svg xmlns="http://www.w3.org/2000/svg" width="16" height="16" viewBox="0 0 16 16">
    <g fill="none" fill-rule="evenodd">
        <circle cx="8" cy="8" r="8" fill="#ADB8CC"/>
        <path fill="#FFF" fill-rule="nonzero" d="M10.656 11.952c.184 0 .32-.062.409-.186.088-.124.132-.274.132-.45s-.044-.326-.132-.45c-.088-.124-.224-.186-.409-.186H7.02l2.533-2.508c.407-.408.717-.822.93-1.242.211-.42.317-.858.317-1.314v-.132c0-.288-.054-.566-.162-.834-.107-.268-.275-.502-.504-.702-.228-.2-.52-.36-.876-.48-.355-.12-.777-.18-1.265-.18-.633 0-1.169.13-1.609.39-.44.26-.792.586-1.056.978-.12.184-.155.36-.107.528.048.168.151.308.311.42.16.112.324.156.492.132.168-.024.308-.112.42-.264.208-.272.433-.476.673-.612.24-.136.54-.204.9-.204.415 0 .726.086.93.258.204.172.306.39.306.654v.06c0 .152-.014.298-.043.438-.028.14-.082.286-.162.438-.08.152-.188.314-.323.486-.136.172-.316.37-.54.594L5.4 10.392c-.128.136-.226.26-.294.372-.067.112-.101.232-.101.36 0 .28.083.488.252.624.168.136.444.204.828.204h4.571z"/>
    </g>
</svg>
